<svg width="151" height="172" viewBox="0 0 151 172" fill="none" xmlns="http://www.w3.org/2000/svg">
<path fill-rule="evenodd" clip-rule="evenodd" d="M67.8419 88.054H83.3321V103.545C83.3321 109.403 79.0181 114.254 73.3938 115.094C74.2521 113.568 74.7425 111.807 74.7425 109.931V96.6448H61.4552C59.5799 96.6448 57.8193 97.1347 56.293 97.9928C57.1327 92.3689 61.9834 88.054 67.8419 88.054Z" fill="black"/>
<path fill-rule="evenodd" clip-rule="evenodd" d="M103.543 83.3336H88.0529V67.8432C88.0529 61.9849 92.3669 57.1346 97.9909 56.2945C97.1332 57.8206 96.6428 59.581 96.6428 61.456V74.7433H109.93C111.805 74.7433 113.566 74.2536 115.092 73.3955C114.252 79.0196 109.402 83.3336 103.543 83.3336Z" fill="black"/>
<path fill-rule="evenodd" clip-rule="evenodd" d="M83.333 83.3329H67.8426C61.9845 83.3329 57.1329 79.0198 56.293 73.3954L56.3647 73.4353L56.3688 73.4374L56.5083 73.5126L56.5819 73.5514L56.716 73.6202L56.7283 73.6267L56.802 73.6633L56.8132 73.6677L56.948 73.7326L56.9503 73.7337L57.0251 73.7688L57.0552 73.7818L57.1713 73.8344L57.1754 73.8362L57.251 73.8695L57.2752 73.8804L57.3963 73.9319L57.5354 73.9886L57.6404 74.03L57.7753 74.0816L57.8851 74.1219L58.0274 74.1719L58.1147 74.2013L58.2887 74.2579L58.3497 74.2774L58.5256 74.3298L58.614 74.3549L58.7801 74.3997L59.0357 74.4623L59.1119 74.4796L59.3088 74.5225L59.3515 74.5312C59.4229 74.5464 59.4948 74.5596 59.5665 74.5726L59.5875 74.5769L59.6059 74.5791C59.6766 74.5921 59.7472 74.6036 59.8182 74.6144L59.8483 74.6187L59.865 74.6209C59.9456 74.6339 60.0263 74.6443 60.1073 74.6547L60.1164 74.656C60.1961 74.6668 60.2763 74.6755 60.3564 74.6837L60.3965 74.688C60.4716 74.6967 60.5466 74.701 60.6222 74.7075L60.6577 74.7097C60.7385 74.7162 60.8199 74.7205 60.9011 74.7248L60.912 74.7255L60.9306 74.7264C61.0129 74.7307 61.0956 74.7328 61.1788 74.735L61.1825 74.7352L61.1918 74.7354C61.2793 74.7376 61.3668 74.7376 61.455 74.7376H74.7422V61.4504C74.7422 61.3624 74.7412 61.2749 74.739 61.1874L74.7388 61.1787L74.7386 61.1744C74.7364 61.0914 74.7334 61.0087 74.7295 60.9262L74.7286 60.9067L74.7277 60.8959C74.7238 60.819 74.7189 60.7423 74.7134 60.6656L74.7115 60.6381L74.7098 60.6186C74.7039 60.5426 74.6972 60.4668 74.6896 60.3912L74.6855 60.3499C74.6777 60.2769 74.6695 60.2045 74.6606 60.132L74.655 60.0876C74.645 60.0089 74.6335 59.9303 74.6218 59.8521L74.6197 59.837C74.6077 59.7581 74.5945 59.6795 74.5807 59.6015L74.5746 59.5667C74.5614 59.4928 74.5469 59.4194 74.5322 59.3462L74.5235 59.3026C74.5101 59.2381 74.4962 59.174 74.4817 59.1099L74.4624 59.0267L74.4206 58.8563L74.3989 58.7711L74.3556 58.6113L74.3273 58.5115L74.287 58.3759L74.2521 58.2632L74.2084 58.1287L74.1711 58.0183L74.1436 57.939L74.1157 57.8608L74.0654 57.7255L74.0578 57.7038L74.0281 57.6265L73.9697 57.4798L73.9669 57.4733L73.9352 57.3966L73.8796 57.265L73.8705 57.2433L73.8373 57.168L73.7691 57.0181L73.734 56.9427L73.7329 56.9405L73.6673 56.8041L73.6625 56.7932L73.6257 56.7196L73.5508 56.5732L73.5125 56.5004L73.434 56.3559L73.3942 56.2843C79.019 57.124 83.333 61.9742 83.333 67.8325V83.3329Z" fill="black"/>
<path fill-rule="evenodd" clip-rule="evenodd" d="M62.8714 47.3809V50.9046H50.904V62.8713H47.3807C40.9316 62.8713 35.702 57.6442 35.702 51.1948V35.7044H51.1949C57.6427 35.7044 62.8714 40.9317 62.8714 47.3809Z" fill="black"/>
<path fill-rule="evenodd" clip-rule="evenodd" d="M47.3799 108.515H50.9042V120.483H62.8703V124.006C62.8703 130.455 57.6416 135.683 51.1938 135.683H35.702V120.192C35.702 113.743 40.9305 108.515 47.3799 108.515Z" fill="black"/>
<path fill-rule="evenodd" clip-rule="evenodd" d="M108.515 124.007V120.482H120.482V108.516H124.005C130.455 108.516 135.683 113.743 135.683 120.193V135.683H120.191C113.743 135.683 108.515 130.456 108.515 124.007Z" fill="black"/>
<path fill-rule="evenodd" clip-rule="evenodd" d="M124.005 62.8722H120.481V50.9055H108.515V47.3818C108.515 40.9325 113.743 35.704 120.191 35.704H135.682V51.1957C135.682 57.6438 130.454 62.8722 124.005 62.8722Z" fill="black"/>
<path fill-rule="evenodd" clip-rule="evenodd" d="M91.1698 13.7341L85.6923 19.2116L80.2163 13.7341C77.9358 11.4541 77.9358 7.75797 80.2163 5.47751L85.6923 0L91.1698 5.47751C93.449 7.75797 93.449 11.4541 91.1698 13.7341Z" fill="black"/>
<path fill-rule="evenodd" clip-rule="evenodd" d="M13.7328 80.2163L19.2103 85.6941L13.7328 91.1714C11.4534 93.4506 7.75669 93.4506 5.47623 91.1714L0 85.6941L5.47623 80.2163C7.75669 77.9374 11.4534 77.9374 13.7328 80.2163Z" fill="black"/>
<path fill-rule="evenodd" clip-rule="evenodd" d="M80.2164 157.654L85.6937 152.177L91.1701 157.654C93.4504 159.933 93.4504 163.63 91.1701 165.911L85.6937 171.387L80.2164 165.911C77.937 163.63 77.937 159.933 80.2164 157.654Z" fill="black"/>
<path fill-rule="evenodd" clip-rule="evenodd" d="M54.4485 11.6284C53.8933 11.6284 53.3974 11.2973 53.1853 10.7842C53.0458 10.4476 53.0458 10.0753 53.1853 9.73846C53.3252 9.4008 53.5871 9.13917 53.9245 8.99969C54.0915 8.93016 54.2678 8.89443 54.4463 8.89443C55.0016 8.89443 55.497 9.22558 55.7092 9.73846C55.8489 10.0753 55.8489 10.4476 55.7092 10.7842C55.5697 11.1218 55.3077 11.3837 54.97 11.5232C54.8032 11.5925 54.6269 11.6284 54.4485 11.6284Z" fill="black"/>
<path fill-rule="evenodd" clip-rule="evenodd" d="M20.9168 37.356C20.6149 37.356 20.327 37.2587 20.0855 37.0738C19.4891 36.615 19.3758 35.7554 19.8334 35.1578C20.0942 34.8184 20.4895 34.6235 20.9201 34.6235C21.222 34.6235 21.509 34.7207 21.75 34.9059C22.3463 35.3647 22.4602 36.2241 22.0023 36.8214C21.7414 37.1613 21.3454 37.356 20.9168 37.356Z" fill="black"/>
<path fill-rule="evenodd" clip-rule="evenodd" d="M4.74586 76.4021C4.68565 76.4021 4.62587 76.4 4.56523 76.3891C4.20374 76.3417 3.88232 76.1569 3.66054 75.8665C3.43724 75.5778 3.34237 75.2182 3.3898 74.8569C3.4786 74.1792 4.05993 73.6696 4.74066 73.6696C4.80109 73.6696 4.86066 73.6718 4.92238 73.6804C5.2843 73.7279 5.60529 73.9144 5.82729 74.2029C6.05016 74.4929 6.14546 74.8515 6.09803 75.2128C6.00923 75.8905 5.4279 76.4021 4.74586 76.4021Z" fill="black"/>
<path fill-rule="evenodd" clip-rule="evenodd" d="M35.988 151.835C35.6854 151.835 35.3984 151.737 35.1571 151.552C34.5598 151.093 34.4461 150.234 34.9048 149.637C35.1658 149.297 35.5609 149.103 35.9904 149.103C36.2925 149.103 36.5803 149.199 36.8203 149.384C37.4181 149.843 37.5316 150.703 37.0727 151.301C36.8119 151.64 36.4166 151.835 35.988 151.835Z" fill="black"/>
<path fill-rule="evenodd" clip-rule="evenodd" d="M75.0374 168.008C74.9768 168.008 74.9174 168.006 74.8568 167.997C74.1108 167.899 73.583 167.213 73.6814 166.465C73.7699 165.787 74.3513 165.278 75.0333 165.278C75.0939 165.278 75.1533 165.28 75.2137 165.288C75.9605 165.387 76.4875 166.075 76.3889 166.821C76.3003 167.498 75.7194 168.008 75.0374 168.008Z" fill="black"/>
<path fill-rule="evenodd" clip-rule="evenodd" d="M116.938 162.492C116.382 162.492 115.886 162.161 115.675 161.649C115.386 160.952 115.718 160.153 116.415 159.864C116.581 159.794 116.757 159.76 116.936 159.76C117.491 159.76 117.987 160.091 118.199 160.604C118.339 160.941 118.339 161.312 118.199 161.649C118.06 161.986 117.797 162.248 117.459 162.388C117.292 162.458 117.116 162.492 116.938 162.492Z" fill="black"/>
<path fill-rule="evenodd" clip-rule="evenodd" d="M135.394 22.285C135.092 22.285 134.805 22.1878 134.564 22.0021C134.275 21.7803 134.089 21.4589 134.041 21.0968C133.994 20.7351 134.09 20.3769 134.312 20.0881C134.573 19.747 134.968 19.5523 135.397 19.5523C135.699 19.5523 135.987 19.6495 136.227 19.8347C136.516 20.0576 136.702 20.379 136.75 20.7407C136.797 21.1018 136.701 21.4615 136.479 21.75C136.219 22.0899 135.823 22.285 135.394 22.285Z" fill="black"/>
<path fill-rule="evenodd" clip-rule="evenodd" d="M96.3528 6.11118C96.2919 6.11118 96.2326 6.10686 96.1719 6.0982C95.8093 6.05076 95.4877 5.86427 95.2659 5.57556C95.0443 5.28642 94.9482 4.92689 94.9956 4.56562C95.0842 3.88792 95.6657 3.37848 96.3469 3.37848C96.4067 3.37848 96.4662 3.38065 96.528 3.38932C96.8903 3.43697 97.212 3.62301 97.4337 3.91324C97.6555 4.20217 97.7519 4.5602 97.7043 4.92169C97.6146 5.59918 97.0333 6.11118 96.3528 6.11118Z" fill="black"/>
<path fill-rule="evenodd" clip-rule="evenodd" d="M36.3438 22.2387C35.8084 22.3823 35.2433 22.191 34.9056 21.7502C34.6838 21.4602 34.5872 21.1022 34.6351 20.7407C34.6825 20.3782 34.8679 20.0567 35.1566 19.835C35.3009 19.7245 35.4616 19.6452 35.6351 19.5989C36.1707 19.4548 36.7345 19.6465 37.0732 20.0869C37.2952 20.3769 37.3916 20.7353 37.3437 21.0968C37.2963 21.4594 37.1101 21.7808 36.8211 22.0026C36.6782 22.113 36.5159 22.1932 36.3438 22.2387Z" fill="black"/>
<path fill-rule="evenodd" clip-rule="evenodd" d="M10.6126 55.7683C10.3206 55.8476 10.0183 55.827 9.73714 55.7098C9.04211 55.422 8.71008 54.6213 8.99792 53.9256C9.16253 53.5305 9.49348 53.2401 9.90933 53.1288C10.2015 53.0499 10.5021 53.0705 10.7835 53.1861C11.4796 53.4751 11.8097 54.276 11.5238 54.9708C11.3583 55.367 11.0284 55.657 10.6126 55.7683Z" fill="black"/>
<path fill-rule="evenodd" clip-rule="evenodd" d="M21.2719 136.717C20.7365 136.861 20.171 136.669 19.8333 136.229C19.3756 135.631 19.4894 134.771 20.0854 134.313C20.2297 134.204 20.3919 134.123 20.5641 134.077C21.0997 133.933 21.6635 134.125 22.0022 134.565C22.4601 135.162 22.3466 136.022 21.7492 136.481C21.6063 136.591 21.4439 136.671 21.2719 136.717Z" fill="black"/>
<path fill-rule="evenodd" clip-rule="evenodd" d="M54.7998 162.446C54.5066 162.524 54.2047 162.504 53.9235 162.388C53.2274 162.1 52.8952 161.298 53.1841 160.603C53.3485 160.208 53.6799 159.916 54.0953 159.806C54.3862 159.727 54.6887 159.748 54.9688 159.863C55.6655 160.152 55.9971 160.952 55.7089 161.649C55.5434 162.044 55.2135 162.334 54.7998 162.446Z" fill="black"/>
<path fill-rule="evenodd" clip-rule="evenodd" d="M96.7056 167.962C96.646 167.977 96.5888 167.989 96.5269 167.996C95.7812 168.095 95.0942 167.568 94.9956 166.82C94.906 166.144 95.3344 165.5 95.9932 165.323C96.0519 165.308 96.1102 165.295 96.1708 165.288C96.9176 165.189 97.6049 165.717 97.7034 166.464C97.7931 167.141 97.3634 167.785 96.7056 167.962Z" fill="black"/>
<path fill-rule="evenodd" clip-rule="evenodd" d="M135.751 151.789C135.215 151.933 134.65 151.74 134.312 151.301C133.853 150.703 133.967 149.843 134.564 149.384C134.708 149.275 134.868 149.196 135.043 149.149C135.579 149.005 136.142 149.197 136.481 149.637C136.703 149.926 136.798 150.285 136.75 150.646C136.704 151.009 136.517 151.33 136.227 151.552C136.085 151.662 135.923 151.742 135.751 151.789Z" fill="black"/>
<path fill-rule="evenodd" clip-rule="evenodd" d="M117.29 11.5819C116.998 11.6596 116.695 11.6401 116.415 11.5247C116.079 11.3837 115.815 11.1218 115.676 10.785C115.536 10.4476 115.536 10.0764 115.676 9.73978C115.839 9.34342 116.172 9.0523 116.586 8.94228C116.877 8.863 117.18 8.88359 117.46 8.99968C117.797 9.14003 118.06 9.40211 118.2 9.73978C118.339 10.0764 118.339 10.4476 118.2 10.7842C118.035 11.1801 117.704 11.4703 117.29 11.5819Z" fill="black"/>
<path fill-rule="evenodd" clip-rule="evenodd" d="M75.3923 6.06394C75.3338 6.0791 75.2751 6.09145 75.2147 6.0999C74.8519 6.14733 74.4939 6.05119 74.2039 5.82811C73.9147 5.6074 73.7298 5.28512 73.6823 4.9232C73.5925 4.24592 74.0209 3.60263 74.6797 3.42546C74.7376 3.41246 74.7958 3.39949 74.8578 3.39082C75.2201 3.34187 75.5781 3.43977 75.8671 3.66156C76.1573 3.88334 76.3423 4.20498 76.3912 4.56604C76.4787 5.24374 76.049 5.88786 75.3923 6.06394Z" fill="black"/>
<path fill-rule="evenodd" clip-rule="evenodd" d="M88.0529 103.545V88.0544H103.544C109.402 88.0544 114.253 92.3686 115.093 97.9923C113.567 97.1342 111.806 96.6443 109.931 96.6443H96.6435V109.93C96.6435 111.806 97.1338 113.567 97.9922 115.094C92.3676 114.254 88.0529 109.404 88.0529 103.545Z" fill="black"/>
<path fill-rule="evenodd" clip-rule="evenodd" d="M10.2609 118.305C9.7056 118.305 9.20983 117.973 8.99779 117.461C8.71016 116.765 9.04219 115.965 9.7383 115.676C9.90464 115.608 10.0812 115.572 10.2596 115.572C10.815 115.572 11.3107 115.903 11.5226 116.416C11.8106 117.111 11.4786 117.913 10.7823 118.2C10.6157 118.27 10.4394 118.305 10.2609 118.305Z" fill="black"/>
<path fill-rule="evenodd" clip-rule="evenodd" d="M5.09982 97.6697C5.04156 97.687 4.98308 97.6967 4.92244 97.7043C4.56095 97.7528 4.20271 97.6569 3.9127 97.434C3.62269 97.212 3.43772 96.8904 3.38964 96.5291C3.30018 95.8514 3.72968 95.209 4.38789 95.0312C4.44637 95.016 4.50464 95.0041 4.56636 94.9956C4.92785 94.9478 5.28609 95.0442 5.57502 95.2662C5.86503 95.4877 6.05043 95.8104 6.09786 96.1717C6.18775 96.8494 5.75803 97.4934 5.09982 97.6697Z" fill="black"/>
<path fill-rule="evenodd" clip-rule="evenodd" d="M123.994 157.563C123.466 156.65 123.779 155.483 124.692 154.957C125.603 154.43 126.77 154.743 127.297 155.656C127.824 156.568 127.511 157.734 126.599 158.262C125.686 158.788 124.52 158.475 123.994 157.563Z" fill="black"/>
<path fill-rule="evenodd" clip-rule="evenodd" d="M29.0998 136.978H34.4082V142.286C34.4082 144.496 32.6159 146.289 30.4061 146.289H25.0977V140.979C25.0977 138.769 26.8897 136.978 29.0998 136.978Z" fill="black"/>
<path fill-rule="evenodd" clip-rule="evenodd" d="M136.977 142.287V136.978H142.285C144.495 136.978 146.287 138.769 146.287 140.979V146.288H140.979C138.768 146.288 136.977 144.496 136.977 142.287Z" fill="black"/>
<path fill-rule="evenodd" clip-rule="evenodd" d="M14.0311 124.865C14.9432 124.339 16.1091 124.651 16.636 125.564C17.1632 126.475 16.8494 127.642 15.9378 128.169C15.0257 128.695 13.8592 128.383 13.332 127.471C12.8059 126.558 13.1189 125.392 14.0311 124.865Z" fill="black"/>
<path fill-rule="evenodd" clip-rule="evenodd" d="M43.2173 155.448C43.7432 154.535 44.9097 154.223 45.8222 154.75C46.7345 155.277 47.0473 156.444 46.5214 157.356C45.9931 158.267 44.8277 158.581 43.9165 158.053C43.0029 157.527 42.6912 156.36 43.2173 155.448Z" fill="black"/>
<path fill-rule="evenodd" clip-rule="evenodd" d="M6.33359 104.983C7.35091 104.711 8.39747 105.314 8.67015 106.332C8.94284 107.349 8.3392 108.395 7.32189 108.667C6.30457 108.94 5.2578 108.336 4.98511 107.319C4.71351 106.302 5.31736 105.256 6.33359 104.983Z" fill="black"/>
<path fill-rule="evenodd" clip-rule="evenodd" d="M62.7176 164.065C62.9905 163.047 64.037 162.444 65.0543 162.716C66.0717 162.989 66.6746 164.035 66.4028 165.052C66.1299 166.07 65.0845 166.673 64.0663 166.4C63.0498 166.128 62.4449 165.082 62.7176 164.065Z" fill="black"/>
<path fill-rule="evenodd" clip-rule="evenodd" d="M104.983 165.052C104.71 164.036 105.314 162.989 106.331 162.716C107.35 162.444 108.394 163.047 108.667 164.065C108.94 165.082 108.337 166.128 107.318 166.401C106.301 166.673 105.255 166.069 104.983 165.052Z" fill="black"/>
<path fill-rule="evenodd" clip-rule="evenodd" d="M46.5216 14.0316C47.0488 14.9441 46.7363 16.1107 45.8238 16.6365C44.9124 17.1637 43.7456 16.8509 43.2187 15.9387C42.6915 15.0262 43.0044 13.8605 43.9167 13.3333C44.8292 12.8064 45.996 13.1194 46.5216 14.0316Z" fill="black"/>
<path fill-rule="evenodd" clip-rule="evenodd" d="M128.169 15.9395C127.643 16.8517 126.476 17.1634 125.564 16.6375C124.651 16.1106 124.338 14.9449 124.864 14.0324C125.393 13.1201 126.558 12.8074 127.469 13.3332C128.382 13.8602 128.695 15.027 128.169 15.9395Z" fill="black"/>
<path fill-rule="evenodd" clip-rule="evenodd" d="M66.4031 6.33506C66.6758 7.35237 66.0722 8.39783 65.0548 8.67052C64.0362 8.9432 62.992 8.33957 62.7191 7.32226C62.4465 6.30472 63.0494 5.25815 64.0676 4.98676C65.0849 4.71386 66.1304 5.31774 66.4031 6.33506Z" fill="black"/>
<path fill-rule="evenodd" clip-rule="evenodd" d="M48.8519 74.7396L59.8057 85.6932L48.8519 96.648C44.2914 101.209 36.8984 101.209 32.3379 96.648L21.3841 85.6932L32.3379 74.7396C36.8984 70.18 44.2914 70.18 48.8519 74.7396Z" fill="black"/>
<path fill-rule="evenodd" clip-rule="evenodd" d="M74.7393 122.534L85.6928 111.58L96.6463 122.534C101.207 127.095 101.207 134.488 96.6463 139.048L85.6928 150.002L74.7393 139.048C70.1788 134.488 70.1788 127.095 74.7393 122.534Z" fill="black"/>
<path fill-rule="evenodd" clip-rule="evenodd" d="M122.533 96.6478L111.58 85.6927L122.533 74.7394C127.094 70.1797 134.487 70.1797 139.047 74.7394L150.001 85.6927L139.047 96.6478C134.487 101.208 127.094 101.208 122.533 96.6478Z" fill="black"/>
<path fill-rule="evenodd" clip-rule="evenodd" d="M96.6468 48.853L85.693 59.8068L74.7393 48.853C70.1788 44.2936 70.1788 36.8997 74.7393 32.3399L85.693 21.3853L96.6468 32.3399C101.207 36.8997 101.207 44.2936 96.6468 48.853Z" fill="black"/>
<path fill-rule="evenodd" clip-rule="evenodd" d="M61.4549 98.8216H72.5652V109.931C72.5652 114.556 68.8165 118.306 64.1908 118.306H53.0816V107.195C53.0816 102.571 56.8305 98.8216 61.4549 98.8216Z" fill="black"/>
<path fill-rule="evenodd" clip-rule="evenodd" d="M98.8198 109.931V98.8213H109.93C114.555 98.8213 118.304 102.57 118.304 107.196V118.305H107.193C102.569 118.305 98.8198 114.555 98.8198 109.931Z" fill="black"/>
<path fill-rule="evenodd" clip-rule="evenodd" d="M109.93 72.5664H98.8198V61.4558C98.8198 56.8314 102.569 53.0823 107.194 53.0823H118.304V64.1917C118.304 68.8174 114.555 72.5664 109.93 72.5664Z" fill="black"/>
<path fill-rule="evenodd" clip-rule="evenodd" d="M72.5648 61.456V72.5663H61.4544C56.8298 72.5663 53.0807 68.8165 53.0807 64.1919V53.0814H64.1914C68.8158 53.0814 72.5648 56.8316 72.5648 61.456Z" fill="black"/>
<path fill-rule="evenodd" clip-rule="evenodd" d="M142.286 34.4097H136.977V29.1011C136.977 26.8911 138.768 25.0988 140.979 25.0988H146.287V30.4074C146.287 32.6174 144.495 34.4097 142.286 34.4097Z" fill="black"/>
<path fill-rule="evenodd" clip-rule="evenodd" d="M34.4091 29.1007V34.4093H29.101C26.8909 34.4093 25.0973 32.6181 25.0973 30.4081V25.0997H30.4072C32.6169 25.0997 34.4091 26.8907 34.4091 29.1007Z" fill="black"/>
<path fill-rule="evenodd" clip-rule="evenodd" d="M15.9386 43.2182C16.8509 43.7441 17.1625 44.9107 16.6364 45.8231C16.1093 46.7354 14.9427 47.0482 14.0302 46.521C13.1192 45.994 12.8054 44.8286 13.3324 43.9161C13.8593 43.0038 15.0248 42.6908 15.9386 43.2182Z" fill="black"/>
<path fill-rule="evenodd" clip-rule="evenodd" d="M7.32216 62.719C8.33839 62.9919 8.94354 64.0373 8.67064 65.0557C8.39796 66.073 7.35118 66.6769 6.33516 66.404C5.31676 66.1313 4.71378 65.0858 4.98647 64.0685C5.25937 63.0503 6.30484 62.4463 7.32216 62.719Z" fill="black"/>
<path fill-rule="evenodd" clip-rule="evenodd" d="M108.668 7.32232C108.395 8.33963 107.349 8.94369 106.331 8.671C105.314 8.3981 104.71 7.35263 104.983 6.33531C105.255 5.31691 106.301 4.71392 107.319 4.98682C108.335 5.25951 108.94 6.305 108.668 7.32232Z" fill="black"/>
</svg>
