<svg width="145" height="56" viewBox="0 0 145 56" fill="none" xmlns="http://www.w3.org/2000/svg">
<path fill-rule="evenodd" clip-rule="evenodd" d="M22.2279 28.7713H27.3032V33.8328C27.3032 35.7469 25.8897 37.3321 24.0469 37.6065C24.3282 37.1078 24.4888 36.5325 24.4888 35.9196V31.5783H20.1353C19.5209 31.5783 18.9441 31.7384 18.444 32.0188C18.7191 30.1812 20.3084 28.7713 22.2279 28.7713Z" fill="white"/>
<path fill-rule="evenodd" clip-rule="evenodd" d="M33.9255 27.2289H28.8502V22.1675C28.8502 20.2533 30.2637 18.6685 32.1063 18.394C31.8253 18.8926 31.6646 19.4678 31.6646 20.0805V24.4221H36.0182C36.6325 24.4221 37.2094 24.2621 37.7093 23.9817C37.4341 25.8193 35.845 27.2289 33.9255 27.2289Z" fill="white"/>
<path fill-rule="evenodd" clip-rule="evenodd" d="M27.3035 27.2287H22.2281C20.3088 27.2287 18.7192 25.8194 18.444 23.9817L18.4675 23.9947L18.4688 23.9954L18.5145 24.02L18.5386 24.0327L18.5826 24.0552L18.5866 24.0573L18.6107 24.0692L18.6144 24.0707L18.6586 24.0919L18.6838 24.1037L18.6937 24.108L18.7317 24.1251L18.7331 24.1257L18.7579 24.1366L18.7658 24.1402L18.8055 24.157L18.851 24.1755L18.8854 24.1891L18.9297 24.2059L18.9656 24.2191L19.0123 24.2354L19.0409 24.245L19.0978 24.2635L19.1179 24.2699L19.1755 24.287L19.2044 24.2952L19.2589 24.3099L19.3426 24.3303L19.3676 24.336L19.4321 24.35L19.4461 24.3528C19.4695 24.3578 19.493 24.3621 19.5165 24.3663L19.5234 24.3677L19.5294 24.3685C19.5526 24.3727 19.5757 24.3765 19.599 24.38L19.6089 24.3814L19.6143 24.3821C19.6407 24.3864 19.6672 24.3898 19.6937 24.3932L19.6967 24.3936C19.7228 24.3971 19.7491 24.4 19.7753 24.4026L19.7885 24.4041C19.8131 24.4069 19.8376 24.4083 19.8624 24.4104L19.874 24.4111C19.9005 24.4133 19.9272 24.4147 19.9538 24.4161L19.9574 24.4163L19.9635 24.4166C19.9904 24.418 20.0175 24.4187 20.0448 24.4194L20.046 24.4195L20.049 24.4195C20.0777 24.4203 20.1064 24.4203 20.1353 24.4203H24.4888V20.0787C24.4888 20.05 24.4884 20.0214 24.4877 19.9928L24.4876 19.9899L24.4876 19.9885C24.4868 19.9614 24.4858 19.9344 24.4846 19.9074L24.4843 19.9011L24.484 19.8975C24.4827 19.8724 24.4811 19.8473 24.4793 19.8223L24.4787 19.8133L24.4781 19.8069C24.4762 19.7821 24.474 19.7573 24.4715 19.7326L24.4702 19.7191C24.4676 19.6953 24.4649 19.6716 24.462 19.6479L24.4602 19.6334C24.4569 19.6077 24.4531 19.582 24.4493 19.5565L24.4486 19.5515C24.4447 19.5258 24.4404 19.5001 24.4358 19.4746L24.4338 19.4632C24.4295 19.4391 24.4247 19.4151 24.4199 19.3912L24.4171 19.3769C24.4127 19.3558 24.4081 19.3349 24.4034 19.3139L24.3971 19.2868L24.3834 19.2311L24.3763 19.2033L24.3621 19.151L24.3528 19.1184L24.3396 19.0741L24.3282 19.0373L24.3138 18.9934L24.3016 18.9573L24.2926 18.9314L24.2835 18.9058L24.267 18.8616L24.2645 18.8545L24.2548 18.8292L24.2356 18.7813L24.2347 18.7792L24.2243 18.7542L24.2061 18.7111L24.2031 18.7041L24.1923 18.6794L24.1699 18.6305L24.1584 18.6058L24.1366 18.5605L24.135 18.557L24.1229 18.5329L24.0984 18.4851L24.0858 18.4613L24.0601 18.4141L24.0471 18.3907C25.89 18.6651 27.3035 20.2499 27.3035 22.164V27.2287Z" fill="white"/>
<path fill-rule="evenodd" clip-rule="evenodd" d="M20.5991 15.4815V16.6329H16.6781V20.543H15.5237C13.4107 20.543 11.6973 18.835 11.6973 16.7277V11.6663H16.7734C18.886 11.6663 20.5991 13.3743 20.5991 15.4815Z" fill="white"/>
<path fill-rule="evenodd" clip-rule="evenodd" d="M15.5234 35.457H16.6782V39.3673H20.5988V40.5186C20.5988 42.6258 18.8856 44.3341 16.773 44.3341H11.6973V39.2724C11.6973 37.1651 13.4104 35.457 15.5234 35.457Z" fill="white"/>
<path fill-rule="evenodd" clip-rule="evenodd" d="M35.5538 40.5187V39.3671H39.4748V35.4573H40.6292C42.7423 35.4573 44.4552 37.1652 44.4552 39.2725V44.334H39.3796C37.2668 44.334 35.5538 42.626 35.5538 40.5187Z" fill="white"/>
<path fill-rule="evenodd" clip-rule="evenodd" d="M40.6294 20.5432H39.4747V16.6331H35.5541V15.4818C35.5541 13.3745 37.2672 11.6661 39.3797 11.6661H44.4552V16.7279C44.4552 18.8348 42.7424 20.5432 40.6294 20.5432Z" fill="white"/>
<path fill-rule="evenodd" clip-rule="evenodd" d="M29.8712 4.48757L28.0765 6.27734L26.2823 4.48757C25.5351 3.74258 25.5351 2.53489 26.2823 1.78976L28.0765 0L29.8712 1.78976C30.6179 2.53489 30.6179 3.74258 29.8712 4.48757Z" fill="white"/>
<path fill-rule="evenodd" clip-rule="evenodd" d="M4.49947 26.2104L6.29414 28.0003L4.49947 29.79C3.75264 30.5347 2.54143 30.5347 1.79425 29.79L0 28.0003L1.79425 26.2104C2.54143 25.4658 3.75264 25.4658 4.49947 26.2104Z" fill="white"/>
<path fill-rule="evenodd" clip-rule="evenodd" d="M26.2825 51.5129L28.0771 49.7232L29.8715 51.5129C30.6186 52.2577 30.6186 53.4657 29.8715 54.2108L28.0771 56L26.2825 54.2108C25.5357 53.4657 25.5357 52.2577 26.2825 51.5129Z" fill="white"/>
<path fill-rule="evenodd" clip-rule="evenodd" d="M17.8399 3.79957C17.658 3.79957 17.4955 3.69137 17.426 3.52371C17.3803 3.41374 17.3803 3.29208 17.426 3.18204C17.4719 3.07171 17.5577 2.98622 17.6682 2.94064C17.7229 2.91793 17.7807 2.90625 17.8392 2.90625C18.0211 2.90625 18.1834 3.01445 18.253 3.18204C18.2987 3.29208 18.2987 3.41374 18.253 3.52371C18.2073 3.63404 18.1214 3.7196 18.0108 3.76518C17.9561 3.78783 17.8984 3.79957 17.8399 3.79957Z" fill="white"/>
<path fill-rule="evenodd" clip-rule="evenodd" d="M6.85337 12.206C6.75445 12.206 6.66013 12.1742 6.58101 12.1138C6.38557 11.9639 6.34846 11.683 6.49841 11.4878C6.58385 11.3769 6.71336 11.3132 6.85443 11.3132C6.95336 11.3132 7.04739 11.3449 7.12637 11.4055C7.32173 11.5553 7.35906 11.8362 7.20904 12.0313C7.12353 12.1424 6.99381 12.206 6.85337 12.206Z" fill="white"/>
<path fill-rule="evenodd" clip-rule="evenodd" d="M1.55525 24.9642C1.53552 24.9642 1.51593 24.9635 1.49606 24.96C1.37762 24.9445 1.27231 24.8841 1.19965 24.7892C1.12648 24.6949 1.0954 24.5774 1.11094 24.4594C1.14004 24.2379 1.3305 24.0714 1.55354 24.0714C1.57334 24.0714 1.59286 24.0721 1.61308 24.0749C1.73166 24.0904 1.83683 24.1514 1.90957 24.2456C1.98259 24.3404 2.01382 24.4576 1.99827 24.5756C1.96918 24.7971 1.77871 24.9642 1.55525 24.9642Z" fill="white"/>
<path fill-rule="evenodd" clip-rule="evenodd" d="M11.7909 49.6115C11.6917 49.6115 11.5977 49.5796 11.5187 49.5193C11.3229 49.3693 11.2857 49.0885 11.436 48.8934C11.5215 48.7823 11.6509 48.7191 11.7917 48.7191C11.8907 48.7191 11.985 48.7505 12.0636 48.8109C12.2594 48.9609 12.2966 49.2417 12.1463 49.4373C12.0608 49.5479 11.9313 49.6115 11.7909 49.6115Z" fill="white"/>
<path fill-rule="evenodd" clip-rule="evenodd" d="M24.5854 54.8961C24.5655 54.8961 24.5461 54.8954 24.5262 54.8926C24.2818 54.8604 24.1089 54.6362 24.1411 54.3919C24.1701 54.1704 24.3606 54.0039 24.5841 54.0039C24.6039 54.0039 24.6234 54.0046 24.6432 54.0074C24.8879 54.0396 25.0605 54.2645 25.0282 54.5081C24.9992 54.7295 24.8089 54.8961 24.5854 54.8961Z" fill="white"/>
<path fill-rule="evenodd" clip-rule="evenodd" d="M38.3143 53.0938C38.1323 53.0938 37.9699 52.9855 37.9004 52.8184C37.8058 52.5906 37.9146 52.3293 38.143 52.2349C38.1976 52.2123 38.2551 52.2009 38.3138 52.2009C38.4958 52.2009 38.6583 52.3091 38.7277 52.4767C38.7734 52.5868 38.7734 52.7081 38.7277 52.8184C38.682 52.9284 38.5958 53.0139 38.4852 53.0596C38.4305 53.0825 38.3728 53.0938 38.3143 53.0938Z" fill="white"/>
<path fill-rule="evenodd" clip-rule="evenodd" d="M44.3615 7.28157C44.2624 7.28157 44.1686 7.2498 44.0895 7.18915C43.9948 7.11668 43.9338 7.01166 43.9183 6.89333C43.9027 6.77515 43.9342 6.6581 44.0068 6.56376C44.0923 6.4523 44.2218 6.38867 44.3625 6.38867C44.4614 6.38867 44.5558 6.42045 44.6345 6.48096C44.7292 6.55378 44.7902 6.6588 44.8057 6.77699C44.8213 6.89496 44.7898 7.01251 44.7171 7.10678C44.6317 7.21782 44.5019 7.28157 44.3615 7.28157Z" fill="white"/>
<path fill-rule="evenodd" clip-rule="evenodd" d="M31.5693 1.99678C31.5494 1.99678 31.53 1.99537 31.5101 1.99254C31.3913 1.97704 31.2859 1.91611 31.2132 1.82177C31.1406 1.72729 31.1091 1.60982 31.1247 1.49178C31.1537 1.27034 31.3442 1.10388 31.5674 1.10388C31.587 1.10388 31.6065 1.10459 31.6268 1.10742C31.7455 1.12299 31.8509 1.18378 31.9235 1.27861C31.9962 1.37302 32.0278 1.49001 32.0122 1.60812C31.9828 1.82949 31.7923 1.99678 31.5693 1.99678Z" fill="white"/>
<path fill-rule="evenodd" clip-rule="evenodd" d="M11.9074 7.26647C11.732 7.31339 11.5469 7.2509 11.4362 7.10688C11.3636 7.01212 11.3319 6.89514 11.3476 6.77703C11.3632 6.65856 11.4239 6.55354 11.5185 6.48107C11.5658 6.44498 11.6184 6.41907 11.6753 6.40392C11.8507 6.35686 12.0355 6.4195 12.1465 6.56338C12.2192 6.65814 12.2508 6.77526 12.2351 6.89337C12.2195 7.01184 12.1585 7.11686 12.0639 7.18933C12.017 7.22542 11.9639 7.25161 11.9074 7.26647Z" fill="white"/>
<path fill-rule="evenodd" clip-rule="evenodd" d="M3.47694 18.2222C3.38128 18.2481 3.28222 18.2414 3.1901 18.2031C2.96238 18.109 2.85359 17.8474 2.9479 17.6201C3.00184 17.491 3.11027 17.3961 3.24652 17.3597C3.34225 17.334 3.44075 17.3407 3.53293 17.3785C3.76101 17.4729 3.86916 17.7346 3.77549 17.9616C3.72127 18.091 3.61319 18.1858 3.47694 18.2222Z" fill="white"/>
<path fill-rule="evenodd" clip-rule="evenodd" d="M6.96971 44.6718C6.79428 44.7188 6.609 44.6563 6.49836 44.5123C6.34842 44.3171 6.38567 44.036 6.58097 43.8864C6.62823 43.8507 6.68138 43.8244 6.7378 43.8094C6.91329 43.7622 7.09801 43.8249 7.209 43.9688C7.35901 44.164 7.32183 44.4448 7.12611 44.5947C7.07928 44.6308 7.02605 44.657 6.96971 44.6718Z" fill="white"/>
<path fill-rule="evenodd" clip-rule="evenodd" d="M17.9551 53.0787C17.859 53.1042 17.7601 53.0978 17.668 53.0596C17.4399 52.9656 17.331 52.7036 17.4257 52.4765C17.4795 52.3474 17.5881 52.2522 17.7242 52.2162C17.8195 52.1904 17.9187 52.1971 18.0104 52.2346C18.2387 52.3291 18.3474 52.5906 18.2529 52.8184C18.1987 52.9475 18.0906 53.0423 17.9551 53.0787Z" fill="white"/>
<path fill-rule="evenodd" clip-rule="evenodd" d="M31.6849 54.881C31.6654 54.8859 31.6467 54.8899 31.6264 54.8923C31.3821 54.9244 31.157 54.7523 31.1247 54.5079C31.0953 54.287 31.2357 54.0765 31.4515 54.0188C31.4708 54.0139 31.4899 54.0097 31.5097 54.0072C31.7544 53.975 31.9796 54.1476 32.0119 54.3916C32.0413 54.6129 31.9005 54.8233 31.6849 54.881Z" fill="white"/>
<path fill-rule="evenodd" clip-rule="evenodd" d="M44.4781 49.5967C44.3024 49.6437 44.1174 49.5807 44.0067 49.4373C43.8564 49.2417 43.8936 48.9609 44.0893 48.8109C44.1365 48.7752 44.189 48.7493 44.246 48.7341C44.4217 48.687 44.6064 48.7498 44.7174 48.8936C44.79 48.988 44.8211 49.1051 44.8056 49.2232C44.7905 49.3417 44.729 49.4468 44.6341 49.5192C44.5876 49.5553 44.5343 49.5814 44.4781 49.5967Z" fill="white"/>
<path fill-rule="evenodd" clip-rule="evenodd" d="M38.4294 3.7843C38.3336 3.8097 38.2346 3.80333 38.1428 3.76561C38.0325 3.71954 37.9463 3.63398 37.9006 3.52393C37.8548 3.41367 37.8548 3.29238 37.9006 3.1824C37.9542 3.05289 38.063 2.95777 38.1988 2.92182C38.2942 2.89592 38.3935 2.90265 38.485 2.94058C38.5956 2.98644 38.6819 3.07207 38.7276 3.1824C38.7732 3.29238 38.7732 3.41367 38.7276 3.52365C38.6736 3.65302 38.5651 3.74785 38.4294 3.7843Z" fill="white"/>
<path fill-rule="evenodd" clip-rule="evenodd" d="M24.7021 1.98135C24.683 1.9863 24.6637 1.99034 24.6439 1.9931C24.5251 2.0086 24.4078 1.97718 24.3127 1.90429C24.218 1.83218 24.1574 1.72687 24.1419 1.60861C24.1124 1.38732 24.2528 1.17712 24.4687 1.11923C24.4876 1.11499 24.5067 1.11075 24.527 1.10792C24.6457 1.09192 24.763 1.12391 24.8577 1.19638C24.9528 1.26885 25.0134 1.37394 25.0294 1.49191C25.0581 1.71335 24.9173 1.92381 24.7021 1.98135Z" fill="white"/>
<path fill-rule="evenodd" clip-rule="evenodd" d="M28.8502 33.833V28.7715H33.9256C35.8451 28.7715 37.4346 30.1811 37.7097 32.0187C37.2097 31.7383 36.6328 31.5782 36.0184 31.5782H31.6649V35.9194C31.6649 36.5323 31.8255 37.1077 32.1068 37.6064C30.2639 37.3322 28.8502 35.7472 28.8502 33.833Z" fill="white"/>
<path fill-rule="evenodd" clip-rule="evenodd" d="M3.36172 38.6559C3.17977 38.6559 3.01733 38.5475 2.94786 38.3802C2.85362 38.1527 2.96241 37.8911 3.19048 37.7967C3.24498 37.7744 3.30282 37.7628 3.36129 37.7628C3.54325 37.7628 3.70568 37.871 3.77509 38.0386C3.86947 38.2657 3.76068 38.5276 3.53253 38.6216C3.47796 38.6443 3.42019 38.6559 3.36172 38.6559Z" fill="white"/>
<path fill-rule="evenodd" clip-rule="evenodd" d="M1.67122 31.9132C1.65213 31.9188 1.63297 31.922 1.6131 31.9245C1.49466 31.9403 1.37729 31.909 1.28227 31.8362C1.18725 31.7636 1.12664 31.6585 1.11089 31.5405C1.08158 31.3191 1.2223 31.1092 1.43796 31.0511C1.45712 31.0461 1.47621 31.0422 1.49643 31.0394C1.61487 31.0238 1.73225 31.0553 1.82691 31.1278C1.92193 31.2002 1.98268 31.3057 1.99822 31.4237C2.02767 31.6452 1.88688 31.8556 1.67122 31.9132Z" fill="white"/>
<path fill-rule="evenodd" clip-rule="evenodd" d="M59.1979 16.12C59.9639 16.12 60.7071 16.2351 61.427 16.4699C62.0037 16.6492 62.2946 17.0404 62.2946 17.6435V17.7078C62.2946 18.1221 62.1238 18.4535 61.7914 18.6928C61.4499 18.946 61.0807 19.0104 60.6839 18.8814C60.2039 18.7203 59.7101 18.642 59.1979 18.642C57.8458 18.642 56.6919 19.1161 55.7366 20.0687C54.7906 21.0214 54.3153 22.1722 54.3153 23.5206C54.3153 24.8598 54.7906 26.006 55.7366 26.9586C56.6919 27.9113 57.8458 28.39 59.1979 28.39C59.7101 28.39 60.2039 28.3117 60.6839 28.1598C61.0807 28.0355 61.4499 28.0908 61.7914 28.3348C62.1238 28.5785 62.2946 28.9099 62.2946 29.3334C62.2946 29.9272 62.0037 30.3184 61.427 30.507C60.7071 30.7325 59.9639 30.843 59.1979 30.843C57.158 30.843 55.4182 30.125 53.9783 28.6844C52.5338 27.2485 51.8139 25.5135 51.8139 23.4793C51.8139 21.4495 52.5338 19.7145 53.9783 18.2785C55.4182 16.838 57.158 16.12 59.1979 16.12ZM70.1492 16.12C68.6079 16.12 67.2971 16.6584 66.2173 17.7355C65.1512 18.817 64.6113 20.1241 64.5928 21.6612V29.6141C64.5928 29.9593 64.7129 30.2448 64.9573 30.4794C65.2019 30.7234 65.4881 30.843 65.825 30.843H65.8619C66.1988 30.843 66.4849 30.7234 66.7295 30.4794C66.9741 30.2448 67.0942 29.9593 67.0942 29.6141V21.6612C67.1035 20.8144 67.3987 20.0965 67.9849 19.5029C68.5801 18.909 69.3001 18.6146 70.1492 18.6146H70.92C71.2614 18.6146 71.5569 18.4902 71.7969 18.2509C72.0322 18.0161 72.1521 17.7263 72.1521 17.3856V17.358C72.1521 17.0175 72.0322 16.7275 71.7969 16.4836C71.5569 16.2398 71.2614 16.12 70.92 16.12H70.1492ZM75.4104 16.12C75.752 16.12 76.038 16.2398 76.2734 16.4836C76.518 16.7275 76.6379 17.0175 76.6379 17.358V29.6141C76.6379 29.9593 76.518 30.2448 76.2734 30.4794C76.038 30.7234 75.752 30.843 75.4104 30.843H75.3827C75.0411 30.843 74.7458 30.7234 74.5012 30.4794C74.2612 30.2448 74.1367 29.9593 74.1367 29.6141V17.358C74.1367 17.0175 74.2612 16.7275 74.5012 16.4836C74.7458 16.2398 75.0411 16.12 75.3827 16.12H75.4104ZM75.3966 13.5564C74.9812 13.5564 74.6305 13.4138 74.3396 13.124C74.0536 12.8385 73.9106 12.4888 73.9106 12.0746C73.9106 11.6696 74.0536 11.3243 74.3396 11.0344C74.6305 10.7492 74.9812 10.6063 75.3966 10.6063C75.8027 10.6063 76.1489 10.7492 76.4349 11.0344C76.7348 11.3243 76.8825 11.6696 76.8825 12.0746C76.8825 12.4888 76.7348 12.8385 76.4349 13.124C76.1489 13.4138 75.8027 13.5564 75.3966 13.5564ZM87.2433 16.12C89.2784 16.12 91.0182 16.838 92.4581 18.2785C93.9026 19.7145 94.6225 21.4495 94.6225 23.4793V29.6141C94.6225 29.9593 94.5027 30.2448 94.2581 30.4794C94.0135 30.7234 93.7272 30.843 93.3949 30.843H93.3535C93.0212 30.843 92.7305 30.7234 92.4859 30.4794C92.2459 30.2448 92.1212 29.9593 92.1212 29.6141V28.9974C90.7229 30.2263 89.0984 30.843 87.2433 30.843C85.2034 30.843 83.4635 30.125 82.0237 28.6844C80.5791 27.2485 79.8592 25.5135 79.8592 23.4793C79.8592 21.4495 80.5791 19.7145 82.0237 18.2785C83.4635 16.838 85.2034 16.12 87.2433 16.12ZM87.2433 18.6146C85.8909 18.6146 84.7373 19.0886 83.782 20.0413C82.8359 20.994 82.3606 22.1398 82.3606 23.4793C82.3606 24.8278 82.8359 25.9782 83.782 26.9309C84.7373 27.8743 85.8909 28.3484 87.2433 28.3484C88.5955 28.3484 89.7445 27.8743 90.6906 26.9309C91.6458 25.9782 92.1212 24.8278 92.1212 23.4793C92.1212 22.1398 91.6458 20.994 90.6906 20.0413C89.7445 19.0886 88.5955 18.6146 87.2433 18.6146ZM98.596 10.5925C98.933 10.5925 99.219 10.7077 99.4636 10.9424C99.7082 11.1863 99.8283 11.4762 99.8283 11.8168V16.12H102.26C102.597 16.12 102.883 16.2398 103.128 16.4836C103.373 16.7275 103.493 17.0175 103.493 17.358V17.3856C103.493 17.7263 103.373 18.0161 103.128 18.2509C102.883 18.4902 102.597 18.6146 102.26 18.6146H99.8283V27.0138C99.8283 27.3819 99.9575 27.695 100.221 27.9572C100.484 28.2196 100.802 28.3484 101.181 28.3484H102.26C102.597 28.3484 102.883 28.4682 103.128 28.7121C103.373 28.9561 103.493 29.2459 103.493 29.5912V29.6141C103.493 29.9593 103.373 30.2448 103.128 30.4794C102.883 30.7234 102.597 30.843 102.26 30.843H101.181C100.114 30.843 99.2053 30.4702 98.4484 29.7245C97.7007 28.9699 97.3269 28.0632 97.3269 27.0138V11.8168C97.3269 11.4762 97.447 11.1863 97.6914 10.9424C97.9361 10.7077 98.2223 10.5925 98.5592 10.5925H98.596ZM107.157 16.12C107.498 16.12 107.785 16.2398 108.02 16.4836C108.265 16.7275 108.384 17.0175 108.384 17.358V29.6141C108.384 29.9593 108.265 30.2448 108.02 30.4794C107.785 30.7234 107.498 30.843 107.157 30.843H107.129C106.788 30.843 106.492 30.7234 106.248 30.4794C106.008 30.2448 105.883 29.9593 105.883 29.6141V17.358C105.883 17.0175 106.008 16.7275 106.248 16.4836C106.492 16.2398 106.788 16.12 107.129 16.12H107.157ZM107.143 13.5564C106.728 13.5564 106.377 13.4138 106.086 13.124C105.8 12.8385 105.657 12.4888 105.657 12.0746C105.657 11.6696 105.8 11.3243 106.086 11.0344C106.377 10.7492 106.728 10.6063 107.143 10.6063C107.549 10.6063 107.895 10.7492 108.181 11.0344C108.481 11.3243 108.629 11.6696 108.629 12.0746C108.629 12.4888 108.481 12.8385 108.181 13.124C107.895 13.4138 107.549 13.5564 107.143 13.5564ZM112.944 16.8749C115.108 21.9005 116.613 25.3983 117.462 27.3775C117.462 27.3683 117.476 27.4049 117.513 27.4878C117.568 27.6212 117.633 27.6212 117.702 27.4878L117.73 27.4049L122.262 16.8749C122.474 16.3685 122.852 16.12 123.397 16.12H123.425C123.863 16.12 124.205 16.3041 124.449 16.6723C124.694 17.0404 124.731 17.4272 124.56 17.832L119.53 29.5358C119.188 30.4056 118.547 30.843 117.61 30.843C116.664 30.843 116.018 30.4056 115.676 29.5358L110.646 17.832C110.475 17.4272 110.512 17.0404 110.752 16.6723C110.997 16.3041 111.338 16.12 111.781 16.12H111.823C112.363 16.12 112.736 16.3685 112.944 16.8749ZM133.689 16.12C135.724 16.12 137.464 16.838 138.903 18.2785C140.348 19.7145 141.068 21.4495 141.068 23.4793V29.6141C141.068 29.9593 140.948 30.2448 140.703 30.4794C140.459 30.7234 140.173 30.843 139.84 30.843H139.799C139.466 30.843 139.176 30.7234 138.931 30.4794C138.691 30.2448 138.566 29.9593 138.566 29.6141V28.9974C137.168 30.2263 135.544 30.843 133.689 30.843C131.649 30.843 129.909 30.125 128.469 28.6844C127.024 27.2485 126.304 25.5135 126.304 23.4793C126.304 21.4495 127.024 19.7145 128.469 18.2785C129.909 16.838 131.649 16.12 133.689 16.12ZM133.689 18.6146C132.336 18.6146 131.183 19.0886 130.227 20.0413C129.281 20.994 128.806 22.1398 128.806 23.4793C128.806 24.8278 129.281 25.9782 130.227 26.9309C131.183 27.8743 132.336 28.3484 133.689 28.3484C135.041 28.3484 136.19 27.8743 137.136 26.9309C138.091 25.9782 138.566 24.8278 138.566 23.4793C138.566 22.1398 138.091 20.994 137.136 20.0413C136.19 19.0886 135.041 18.6146 133.689 18.6146Z" fill="white"/>
<path fill-rule="evenodd" clip-rule="evenodd" d="M54.8274 36.2746C55.658 36.2746 56.368 36.5678 56.9558 37.1557C57.5454 37.7417 57.8391 38.4499 57.8391 39.2782V41.7822C57.8391 41.923 57.7902 42.0395 57.6904 42.1352C57.5905 42.2349 57.4738 42.2836 57.3382 42.2836H57.3211C57.1855 42.2836 57.0669 42.2349 56.9671 42.1352C56.8691 42.0395 56.8182 41.923 56.8182 41.7822V41.5303C56.2475 42.0319 55.5845 42.2836 54.8274 42.2836C53.9948 42.2836 53.2847 41.9906 52.6971 41.4028C52.1075 40.8166 51.8139 40.1084 51.8139 39.2782C51.8139 38.4499 52.1075 37.7417 52.6971 37.1557C53.2847 36.5678 53.9948 36.2746 54.8274 36.2746ZM54.8274 37.2927C54.2756 37.2927 53.8047 37.4864 53.4147 37.8751C53.0286 38.2639 52.8347 38.7317 52.8347 39.2782C52.8347 39.8286 53.0286 40.2983 53.4147 40.687C53.8047 41.0722 54.2756 41.2656 54.8274 41.2656C55.3794 41.2656 55.8483 41.0722 56.2345 40.687C56.6244 40.2983 56.8182 39.8286 56.8182 39.2782C56.8182 38.7317 56.6244 38.2639 56.2345 37.8751C55.8483 37.4864 55.3794 37.2927 54.8274 37.2927ZM60.4876 37.2927C60.2822 37.2927 60.107 37.3641 59.9639 37.507C59.8207 37.6535 59.7491 37.8282 59.7491 38.0292C59.7491 38.3164 59.8847 38.5307 60.1579 38.6733C60.2407 38.7185 60.5589 38.8124 61.111 38.959C61.5235 39.0773 61.8249 39.2276 62.017 39.4116C62.2881 39.6671 62.4257 40.0409 62.4257 40.5273C62.4257 41.012 62.2543 41.427 61.9114 41.7727C61.5668 42.1127 61.1506 42.2836 60.6645 42.2836H59.2237C59.0879 42.2836 58.9712 42.2349 58.8714 42.1352C58.7715 42.0395 58.7226 41.923 58.7226 41.7822V41.7727C58.7226 41.6319 58.7715 41.5135 58.8714 41.414C58.9712 41.3143 59.0879 41.2656 59.2237 41.2656H60.7191C60.9263 41.2656 61.1015 41.1941 61.2447 41.0515C61.3877 40.9087 61.4593 40.734 61.4593 40.5273C61.4593 40.2569 61.3238 40.0541 61.0506 39.9225C60.9884 39.8944 60.6702 39.7986 60.0957 39.6371C59.6888 39.5149 59.3856 39.3608 59.1915 39.1749C58.9185 38.9062 58.7829 38.525 58.7829 38.0292C58.7829 37.5463 58.9543 37.1331 59.2951 36.7913C59.6417 36.4476 60.0581 36.2746 60.5439 36.2746H61.5591C61.6986 36.2746 61.8172 36.3236 61.917 36.4231C62.017 36.5226 62.0659 36.641 62.0659 36.78V36.7913C62.0659 36.9302 62.017 37.0486 61.917 37.1443C61.8172 37.242 61.6986 37.2927 61.5591 37.2927H60.4876ZM64.8517 37.2927C64.6463 37.2927 64.471 37.3641 64.328 37.507C64.1848 37.6535 64.1132 37.8282 64.1132 38.0292C64.1132 38.3164 64.2488 38.5307 64.522 38.6733C64.6048 38.7185 64.9231 38.8124 65.475 38.959C65.8876 39.0773 66.1889 39.2276 66.381 39.4116C66.6522 39.6671 66.7898 40.0409 66.7898 40.5273C66.7898 41.012 66.6184 41.427 66.2754 41.7727C65.9308 42.1127 65.5147 42.2836 65.0287 42.2836H63.5878C63.452 42.2836 63.3353 42.2349 63.2356 42.1352C63.1356 42.0395 63.0867 41.923 63.0867 41.7822V41.7727C63.0867 41.6319 63.1356 41.5135 63.2356 41.414C63.3353 41.3143 63.452 41.2656 63.5878 41.2656H65.0832C65.2904 41.2656 65.4656 41.1941 65.6088 41.0515C65.7519 40.9087 65.8235 40.734 65.8235 40.5273C65.8235 40.2569 65.6879 40.0541 65.4147 39.9225C65.3526 39.8944 65.0343 39.7986 64.4598 39.6371C64.0529 39.5149 63.7497 39.3608 63.5556 39.1749C63.2826 38.9062 63.1471 38.525 63.1471 38.0292C63.1471 37.5463 63.3184 37.1331 63.6592 36.7913C64.0058 36.4476 64.4222 36.2746 64.908 36.2746H65.9232C66.0626 36.2746 66.1813 36.3236 66.2811 36.4231C66.381 36.5226 66.4299 36.641 66.4299 36.78V36.7913C66.4299 36.9302 66.381 37.0486 66.2811 37.1443C66.1813 37.242 66.0626 37.2927 65.9232 37.2927H64.8517ZM68.3944 36.2746C68.5339 36.2746 68.6507 36.3236 68.7467 36.4231C68.8465 36.5226 68.8955 36.641 68.8955 36.78V41.7822C68.8955 41.923 68.8465 42.0395 68.7467 42.1352C68.6507 42.2349 68.5339 42.2836 68.3944 42.2836H68.3832C68.2438 42.2836 68.1233 42.2349 68.0233 42.1352C67.9256 42.0395 67.8747 41.923 67.8747 41.7822V36.78C67.8747 36.641 67.9256 36.5226 68.0233 36.4231C68.1233 36.3236 68.2438 36.2746 68.3832 36.2746H68.3944ZM68.3887 35.2285C68.2191 35.2285 68.0762 35.1701 67.9575 35.052C67.8406 34.9354 67.7823 34.7926 67.7823 34.6237C67.7823 34.4584 67.8406 34.3174 67.9575 34.199C68.0762 34.0826 68.2191 34.0245 68.3887 34.0245C68.5545 34.0245 68.6957 34.0826 68.8126 34.199C68.9349 34.3174 68.9952 34.4584 68.9952 34.6237C68.9952 34.7926 68.9349 34.9354 68.8126 35.052C68.6957 35.1701 68.5545 35.2285 68.3887 35.2285ZM71.7547 37.2927C71.5493 37.2927 71.3741 37.3641 71.2311 37.507C71.0879 37.6535 71.0163 37.8282 71.0163 38.0292C71.0163 38.3164 71.1519 38.5307 71.425 38.6733C71.5079 38.7185 71.8261 38.8124 72.3781 38.959C72.7907 39.0773 73.092 39.2276 73.2841 39.4116C73.5553 39.6671 73.6929 40.0409 73.6929 40.5273C73.6929 41.012 73.5215 41.427 73.1785 41.7727C72.8339 42.1127 72.4177 42.2836 71.9318 42.2836H70.4908C70.3551 42.2836 70.2384 42.2349 70.1386 42.1352C70.0387 42.0395 69.9898 41.923 69.9898 41.7822V41.7727C69.9898 41.6319 70.0387 41.5135 70.1386 41.414C70.2384 41.3143 70.3551 41.2656 70.4908 41.2656H71.9863C72.1934 41.2656 72.3686 41.1941 72.5119 41.0515C72.6549 40.9087 72.7265 40.734 72.7265 40.5273C72.7265 40.2569 72.591 40.0541 72.3177 39.9225C72.2556 39.8944 71.9374 39.7986 71.3628 39.6371C70.9559 39.5149 70.6528 39.3608 70.4586 39.1749C70.1857 38.9062 70.0501 38.525 70.0501 38.0292C70.0501 37.5463 70.2215 37.1331 70.5622 36.7913C70.9088 36.4476 71.3252 36.2746 71.8111 36.2746H72.8263C72.9657 36.2746 73.0844 36.3236 73.1841 36.4231C73.2841 36.5226 73.333 36.641 73.333 36.78V36.7913C73.333 36.9302 73.2841 37.0486 73.1841 37.1443C73.0844 37.242 72.9657 37.2927 72.8263 37.2927H71.7547ZM75.0921 34.0189C75.2297 34.0189 75.3466 34.0658 75.4464 34.1615C75.5462 34.261 75.5952 34.3794 75.5952 34.5183V36.2746H76.5877C76.7253 36.2746 76.842 36.3236 76.9417 36.4231C77.0417 36.5226 77.0906 36.641 77.0906 36.78V36.7913C77.0906 36.9302 77.0417 37.0486 76.9417 37.1443C76.842 37.242 76.7253 37.2927 76.5877 37.2927H75.5952V40.721C75.5952 40.8712 75.6479 40.9988 75.7552 41.1059C75.8625 41.213 75.9925 41.2656 76.147 41.2656H76.5877C76.7253 41.2656 76.842 41.3143 76.9417 41.414C77.0417 41.5135 77.0906 41.6319 77.0906 41.7727V41.7822C77.0906 41.923 77.0417 42.0395 76.9417 42.1352C76.842 42.2349 76.7253 42.2836 76.5877 42.2836H76.147C75.7119 42.2836 75.3407 42.1316 75.032 41.8273C74.7268 41.5192 74.5743 41.149 74.5743 40.721V34.5183C74.5743 34.3794 74.6232 34.261 74.723 34.1615C74.8228 34.0658 74.9396 34.0189 75.0772 34.0189H75.0921ZM80.7108 37.304C81.3286 37.304 81.8353 37.5407 82.2328 38.0142L78.7407 39.5863C78.7256 39.4924 78.7182 39.3947 78.7182 39.2952C78.7182 38.7447 78.9121 38.2752 79.2981 37.8864C79.6882 37.4975 80.1591 37.304 80.7108 37.304ZM83.4476 38.0292C83.2084 37.505 82.8449 37.0823 82.3551 36.7632C81.8578 36.4382 81.3099 36.2746 80.7108 36.2746C79.8782 36.2746 79.1682 36.5678 78.5806 37.1557C77.991 37.7417 77.6973 38.4499 77.6973 39.2782C77.6973 40.1084 77.991 40.8166 78.5806 41.4028C79.1682 41.9906 79.8782 42.2836 80.7108 42.2836C81.357 42.2836 81.9446 42.0939 82.4702 41.7163C82.9862 41.35 83.346 40.8691 83.5532 40.2756C83.6116 40.1103 83.5908 39.9582 83.4911 39.8174C83.3892 39.6746 83.2499 39.6032 83.0785 39.6032C82.8355 39.6032 82.6736 39.7177 82.5925 39.945C82.4551 40.3376 82.2177 40.6569 81.8806 40.903C81.5302 41.1548 81.1403 41.2824 80.7108 41.2824C80.0629 41.2824 79.5412 41.0289 79.1438 40.5217C79.4526 40.3827 80.1269 40.0784 81.1685 39.6087C82.0067 39.2312 82.6848 38.9269 83.199 38.696C83.3271 38.6376 83.4156 38.5437 83.4647 38.4142C83.5118 38.2827 83.5061 38.155 83.4476 38.0292ZM81.6808 35.867C81.7373 35.9216 81.7921 35.9497 81.8466 35.9497H82.2723C82.361 35.9497 82.4231 35.9104 82.4587 35.8333C82.5001 35.7525 82.4927 35.6793 82.438 35.6134L81.3457 34.2329C81.3043 34.1783 81.2495 34.1503 81.1799 34.1503H80.0931C80.0253 34.1503 79.9706 34.1783 79.9273 34.2329L78.8405 35.6134C78.784 35.6793 78.7765 35.7525 78.818 35.8333C78.8538 35.9104 78.9177 35.9497 79.0044 35.9497H79.4301C79.4846 35.9497 79.5412 35.9216 79.5959 35.867L80.6393 34.8433L81.6808 35.867ZM85.5988 41.7822C85.5988 41.923 85.5497 42.0395 85.4499 42.1352C85.3501 42.2349 85.2333 42.2836 85.0957 42.2836H85.0808C84.9432 42.2836 84.8263 42.2349 84.7265 42.1352C84.6268 42.0395 84.5779 41.923 84.5779 41.7822V38.773C84.5779 38.0835 84.8227 37.4938 85.3124 37.0055C85.8002 36.5188 86.3917 36.2746 87.0829 36.2746C87.7705 36.2746 88.3598 36.5188 88.8497 37.0055C89.3375 37.4938 89.5823 38.0835 89.5823 38.773V41.7822C89.5823 41.923 89.5334 42.0395 89.4337 42.1352C89.3375 42.2349 89.2208 42.2836 89.0814 42.2836H89.07C88.9307 42.2836 88.81 42.2349 88.7103 42.1352C88.6123 42.0395 88.5614 41.923 88.5614 41.7822V38.773C88.5614 38.3654 88.4184 38.0178 88.132 37.7267C87.8401 37.4374 87.4917 37.2927 87.0829 37.2927C86.6703 37.2927 86.3201 37.4374 86.0301 37.7267C85.7418 38.0178 85.5988 38.3654 85.5988 38.773V41.7822ZM93.534 36.2746C93.8466 36.2746 94.15 36.3216 94.4438 36.4175C94.6792 36.4907 94.7979 36.6504 94.7979 36.8964V36.9228C94.7979 37.0918 94.7283 37.227 94.5925 37.3247C94.4534 37.428 94.3025 37.4542 94.1405 37.4016C93.9446 37.3361 93.743 37.304 93.534 37.304C92.9823 37.304 92.5114 37.4975 92.1213 37.8864C91.7353 38.2752 91.5414 38.7447 91.5414 39.2952C91.5414 39.8416 91.7353 40.3095 92.1213 40.6982C92.5114 41.0871 92.9823 41.2824 93.534 41.2824C93.743 41.2824 93.9446 41.2505 94.1405 41.1885C94.3025 41.1378 94.4534 41.1604 94.5925 41.2599C94.7283 41.3594 94.7979 41.4947 94.7979 41.6676C94.7979 41.9099 94.6792 42.0696 94.4438 42.1465C94.15 42.2385 93.8466 42.2836 93.534 42.2836C92.7015 42.2836 91.9913 41.9906 91.4038 41.4028C90.8142 40.8166 90.5205 40.1084 90.5205 39.2782C90.5205 38.4499 90.8142 37.7417 91.4038 37.1557C91.9913 36.5678 92.7015 36.2746 93.534 36.2746ZM96.4593 36.2746C96.5987 36.2746 96.7155 36.3236 96.8115 36.4231C96.9113 36.5226 96.9604 36.641 96.9604 36.78V41.7822C96.9604 41.923 96.9113 42.0395 96.8115 42.1352C96.7155 42.2349 96.5987 42.2836 96.4593 42.2836H96.448C96.3086 42.2836 96.1881 42.2349 96.0882 42.1352C95.9904 42.0395 95.9395 41.923 95.9395 41.7822V36.78C95.9395 36.641 95.9904 36.5226 96.0882 36.4231C96.1881 36.3236 96.3086 36.2746 96.448 36.2746H96.4593ZM96.4536 35.2285C96.2841 35.2285 96.141 35.1701 96.0224 35.052C95.9055 34.9354 95.8472 34.7926 95.8472 34.6237C95.8472 34.4584 95.9055 34.3174 96.0224 34.199C96.141 34.0826 96.2841 34.0245 96.4536 34.0245C96.6194 34.0245 96.7606 34.0826 96.8775 34.199C96.9998 34.3174 97.0602 34.4584 97.0602 34.6237C97.0602 34.7926 96.9998 34.9354 96.8775 35.052C96.7606 35.1701 96.6194 35.2285 96.4536 35.2285ZM101.289 36.2746C102.119 36.2746 102.829 36.5678 103.417 37.1557C104.007 37.7417 104.3 38.4499 104.3 39.2782V41.7822C104.3 41.923 104.251 42.0395 104.152 42.1352C104.052 42.2349 103.935 42.2836 103.8 42.2836H103.782C103.647 42.2836 103.528 42.2349 103.428 42.1352C103.33 42.0395 103.28 41.923 103.28 41.7822V41.5303C102.709 42.0319 102.046 42.2836 101.289 42.2836C100.456 42.2836 99.746 41.9906 99.1584 41.4028C98.5688 40.8166 98.2751 40.1084 98.2751 39.2782C98.2751 38.4499 98.5688 37.7417 99.1584 37.1557C99.746 36.5678 100.456 36.2746 101.289 36.2746ZM101.289 37.2927C100.737 37.2927 100.266 37.4864 99.8759 37.8751C99.4899 38.2639 99.296 38.7317 99.296 39.2782C99.296 39.8286 99.4899 40.2983 99.8759 40.687C100.266 41.0722 100.737 41.2656 101.289 41.2656C101.841 41.2656 102.31 41.0722 102.696 40.687C103.086 40.2983 103.28 39.8286 103.28 39.2782C103.28 38.7317 103.086 38.2639 102.696 37.8751C102.31 37.4864 101.841 37.2927 101.289 37.2927ZM110.712 36.2746C110.083 36.2746 109.548 36.4945 109.107 36.9341C108.672 37.3754 108.452 37.9088 108.444 38.5363V41.7822C108.444 41.923 108.493 42.0395 108.593 42.1352C108.693 42.2349 108.81 42.2836 108.947 42.2836H108.962C109.1 42.2836 109.217 42.2349 109.316 42.1352C109.416 42.0395 109.465 41.923 109.465 41.7822V38.5363C109.469 38.1907 109.59 37.8976 109.829 37.6552C110.072 37.4129 110.366 37.2927 110.712 37.2927H111.027C111.166 37.2927 111.287 37.242 111.385 37.1443C111.481 37.0486 111.53 36.9302 111.53 36.7913V36.78C111.53 36.641 111.481 36.5226 111.385 36.4231C111.287 36.3236 111.166 36.2746 111.027 36.2746H110.712ZM114.984 37.304C115.602 37.304 116.108 37.5407 116.506 38.0142L113.014 39.5863C112.999 39.4924 112.991 39.3947 112.991 39.2952C112.991 38.7447 113.185 38.2752 113.571 37.8864C113.961 37.4975 114.432 37.304 114.984 37.304ZM117.721 38.0292C117.481 37.505 117.118 37.0823 116.628 36.7632C116.131 36.4382 115.583 36.2746 114.984 36.2746C114.151 36.2746 113.441 36.5678 112.854 37.1557C112.264 37.7417 111.97 38.4499 111.97 39.2782C111.97 40.1084 112.264 40.8166 112.854 41.4028C113.441 41.9906 114.151 42.2836 114.984 42.2836C115.63 42.2836 116.218 42.0939 116.743 41.7163C117.259 41.35 117.619 40.8691 117.826 40.2756C117.885 40.1103 117.864 39.9582 117.764 39.8174C117.662 39.6746 117.523 39.6032 117.351 39.6032C117.109 39.6032 116.947 39.7177 116.865 39.945C116.728 40.3376 116.491 40.6569 116.154 40.903C115.803 41.1548 115.413 41.2824 114.984 41.2824C114.336 41.2824 113.814 41.0289 113.417 40.5217C113.726 40.3827 114.4 40.0784 115.441 39.6087C116.28 39.2312 116.958 38.9269 117.472 38.696C117.6 38.6376 117.689 38.5437 117.738 38.4142C117.785 38.2827 117.779 38.155 117.721 38.0292ZM119.872 41.7822C119.872 41.923 119.823 42.0395 119.723 42.1352C119.623 42.2349 119.506 42.2836 119.369 42.2836H119.354C119.216 42.2836 119.099 42.2349 119 42.1352C118.9 42.0395 118.851 41.923 118.851 41.7822V38.756C118.851 38.0741 119.094 37.4881 119.58 36.9997C120.066 36.517 120.651 36.2746 121.339 36.2746C122.16 36.2746 122.819 36.6015 123.32 37.2535C123.818 36.6015 124.475 36.2746 125.296 36.2746C125.984 36.2746 126.571 36.517 127.056 36.9997C127.542 37.4881 127.785 38.0741 127.785 38.756V41.7822C127.785 41.923 127.737 42.0395 127.641 42.1352C127.542 42.2349 127.423 42.2836 127.283 42.2836H127.272C127.131 42.2836 127.014 42.2349 126.918 42.1352C126.818 42.0395 126.769 41.923 126.769 41.7822V38.756C126.769 38.3522 126.626 38.0085 126.34 37.721C126.052 37.4356 125.705 37.2927 125.296 37.2927C124.891 37.2927 124.545 37.4356 124.258 37.721C123.972 38.0085 123.829 38.3522 123.829 38.756V41.7822C123.829 41.923 123.778 42.0395 123.678 42.1352C123.584 42.2349 123.465 42.2836 123.326 42.2836H123.315C123.175 42.2836 123.055 42.2349 122.957 42.1352C122.857 42.0395 122.808 41.923 122.808 41.7822V38.756C122.808 38.3522 122.663 38.0085 122.377 37.721C122.091 37.4356 121.744 37.2927 121.339 37.2927C120.934 37.2927 120.589 37.4356 120.303 37.721C120.015 38.0085 119.872 38.3522 119.872 38.756V41.7822ZM131.736 37.304C132.288 37.304 132.757 37.4975 133.143 37.8864C133.533 38.2752 133.727 38.7447 133.727 39.2952C133.727 39.8416 133.533 40.3095 133.143 40.6982C132.757 41.0871 132.288 41.2824 131.736 41.2824C131.184 41.2824 130.713 41.0871 130.323 40.6982C129.937 40.3095 129.743 39.8416 129.743 39.2952C129.743 38.7447 129.937 38.2752 130.323 37.8864C130.713 37.4975 131.184 37.304 131.736 37.304ZM131.736 36.2746C130.903 36.2746 130.193 36.5678 129.606 37.1557C129.016 37.7417 128.723 38.4499 128.723 39.2782C128.723 40.1084 129.016 40.8166 129.606 41.4028C130.193 41.9906 130.903 42.2836 131.736 42.2836C132.567 42.2836 133.277 41.9906 133.866 41.4028C134.454 40.8166 134.748 40.1084 134.748 39.2782C134.748 38.4499 134.454 37.7417 133.866 37.1557C133.277 36.5678 132.567 36.2746 131.736 36.2746ZM136.204 34.0189C136.341 34.0189 136.458 34.0658 136.558 34.1615C136.658 34.261 136.707 34.3794 136.707 34.5183V36.2746H137.699C137.837 36.2746 137.954 36.3236 138.053 36.4231C138.153 36.5226 138.202 36.641 138.202 36.78V36.7913C138.202 36.9302 138.153 37.0486 138.053 37.1443C137.954 37.242 137.837 37.2927 137.699 37.2927H136.707V40.721C136.707 40.8712 136.76 40.9988 136.867 41.1059C136.974 41.213 137.104 41.2656 137.259 41.2656H137.699C137.837 41.2656 137.954 41.3143 138.053 41.414C138.153 41.5135 138.202 41.6319 138.202 41.7727V41.7822C138.202 41.923 138.153 42.0395 138.053 42.1352C137.954 42.2349 137.837 42.2836 137.699 42.2836H137.259C136.824 42.2836 136.452 42.1316 136.144 41.8273C135.838 41.5192 135.686 41.149 135.686 40.721V34.5183C135.686 34.3794 135.735 34.261 135.835 34.1615C135.934 34.0658 136.051 34.0189 136.189 34.0189H136.204ZM141.988 36.2746C142.819 36.2746 143.529 36.5678 144.117 37.1557C144.706 37.7417 145 38.4499 145 39.2782V41.7822C145 41.923 144.951 42.0395 144.851 42.1352C144.751 42.2349 144.635 42.2836 144.499 42.2836H144.482C144.346 42.2836 144.228 42.2349 144.128 42.1352C144.03 42.0395 143.979 41.923 143.979 41.7822V41.5303C143.408 42.0319 142.745 42.2836 141.988 42.2836C141.156 42.2836 140.446 41.9906 139.858 41.4028C139.268 40.8166 138.975 40.1084 138.975 39.2782C138.975 38.4499 139.268 37.7417 139.858 37.1557C140.446 36.5678 141.156 36.2746 141.988 36.2746ZM141.988 37.2927C141.436 37.2927 140.966 37.4864 140.575 37.8751C140.19 38.2639 139.996 38.7317 139.996 39.2782C139.996 39.8286 140.19 40.2983 140.575 40.687C140.966 41.0722 141.436 41.2656 141.988 41.2656C142.54 41.2656 143.009 41.0722 143.395 40.687C143.785 40.2983 143.979 39.8286 143.979 39.2782C143.979 38.7317 143.785 38.2639 143.395 37.8751C143.009 37.4864 142.54 37.2927 141.988 37.2927Z" fill="white"/>
<path fill-rule="evenodd" clip-rule="evenodd" d="M40.6258 51.4831C40.4531 51.1849 40.5556 50.8037 40.8546 50.6318C41.1531 50.4596 41.5354 50.5619 41.7081 50.8599C41.8807 51.158 41.7783 51.5389 41.4794 51.7115C41.1805 51.8833 40.7982 51.7812 40.6258 51.4831Z" fill="white"/>
<path fill-rule="evenodd" clip-rule="evenodd" d="M9.53455 44.7571H11.2738V46.4916C11.2738 47.2137 10.6866 47.7993 9.96253 47.7993H8.22328V46.0644C8.22328 45.3423 8.81043 44.7571 9.53455 44.7571Z" fill="white"/>
<path fill-rule="evenodd" clip-rule="evenodd" d="M44.8798 46.4917V44.7571H46.6191C47.3432 44.7571 47.9304 45.3423 47.9304 46.0645V47.799H46.1911C45.4667 47.799 44.8798 47.2137 44.8798 46.4917Z" fill="white"/>
<path fill-rule="evenodd" clip-rule="evenodd" d="M4.59727 40.7991C4.8961 40.6272 5.2781 40.7294 5.45075 41.0276C5.62348 41.3253 5.52065 41.7065 5.22196 41.8787C4.92314 42.0506 4.54092 41.9488 4.3682 41.6506C4.19583 41.3526 4.29837 40.9713 4.59727 40.7991Z" fill="white"/>
<path fill-rule="evenodd" clip-rule="evenodd" d="M14.1598 50.7921C14.3321 50.4939 14.7143 50.3918 15.0133 50.5641C15.3122 50.7362 15.4147 51.1175 15.2424 51.4156C15.0693 51.7133 14.6874 51.8158 14.3889 51.6433C14.0896 51.4714 13.9875 51.0902 14.1598 50.7921Z" fill="white"/>
<path fill-rule="evenodd" clip-rule="evenodd" d="M2.0748 34.303C2.40812 34.2138 2.75101 34.4111 2.84036 34.7435C2.9297 35.076 2.73192 35.4175 2.39861 35.5066C2.06529 35.5957 1.72232 35.3985 1.63298 35.0661C1.54399 34.7337 1.74184 34.3921 2.0748 34.303Z" fill="white"/>
<path fill-rule="evenodd" clip-rule="evenodd" d="M20.5491 53.6077C20.6385 53.2753 20.9814 53.078 21.3147 53.1671C21.648 53.2563 21.8456 53.5979 21.7565 53.9303C21.6671 54.263 21.3246 54.4599 20.991 54.3708C20.658 54.2817 20.4598 53.9402 20.5491 53.6077Z" fill="white"/>
<path fill-rule="evenodd" clip-rule="evenodd" d="M34.3964 53.9302C34.307 53.5982 34.5049 53.2562 34.8382 53.167C35.172 53.0779 35.5141 53.275 35.6035 53.6077C35.6928 53.9401 35.4953 54.2817 35.1616 54.3708C34.8283 54.46 34.4857 54.2626 34.3964 53.9302Z" fill="white"/>
<path fill-rule="evenodd" clip-rule="evenodd" d="M15.2422 4.58478C15.4149 4.88294 15.3125 5.2641 15.0135 5.43593C14.7149 5.60818 14.3326 5.50599 14.16 5.20791C13.9873 4.90975 14.0898 4.52888 14.3887 4.35662C14.6877 4.18444 15.07 4.2867 15.2422 4.58478Z" fill="white"/>
<path fill-rule="evenodd" clip-rule="evenodd" d="M41.9935 5.20809C41.8211 5.50617 41.4388 5.60801 41.1399 5.43618C40.841 5.264 40.7386 4.88311 40.9109 4.58496C41.084 4.28688 41.4658 4.18469 41.7644 4.35652C42.0634 4.5287 42.1658 4.90994 41.9935 5.20809Z" fill="white"/>
<path fill-rule="evenodd" clip-rule="evenodd" d="M21.7564 2.06993C21.8458 2.40234 21.648 2.74394 21.3147 2.83304C20.9809 2.92214 20.6388 2.7249 20.5494 2.3925C20.46 2.06002 20.6576 1.71806 20.9912 1.62938C21.3245 1.54021 21.6671 1.73753 21.7564 2.06993Z" fill="white"/>
<path fill-rule="evenodd" clip-rule="evenodd" d="M16.0063 24.421L19.5952 28L16.0063 31.5795C14.5121 33.0697 12.0898 33.0697 10.5956 31.5795L7.00664 28L10.5956 24.421C12.0898 22.9311 14.5121 22.9311 16.0063 24.421Z" fill="white"/>
<path fill-rule="evenodd" clip-rule="evenodd" d="M24.4878 40.0376L28.0767 36.4585L31.6656 40.0376C33.1598 41.5278 33.1598 43.9434 31.6656 45.4336L28.0767 49.0126L24.4878 45.4336C22.9936 43.9434 22.9936 41.5278 24.4878 40.0376Z" fill="white"/>
<path fill-rule="evenodd" clip-rule="evenodd" d="M40.1473 31.5794L36.5584 27.9999L40.1473 24.4209C41.6415 22.9311 44.0638 22.9311 45.558 24.4209L49.1469 27.9999L45.558 31.5794C44.0638 33.0695 41.6415 33.0695 40.1473 31.5794Z" fill="white"/>
<path fill-rule="evenodd" clip-rule="evenodd" d="M31.6657 15.9625L28.0768 19.5416L24.4878 15.9625C22.9936 14.4728 22.9936 12.0568 24.4878 10.5669L28.0768 6.98754L31.6657 10.5669C33.1599 12.0568 33.1599 14.4728 31.6657 15.9625Z" fill="white"/>
<path fill-rule="evenodd" clip-rule="evenodd" d="M20.1352 32.2897H23.7755V35.9197C23.7755 37.4307 22.5472 38.656 21.0317 38.656H17.3918V35.0258C17.3918 33.5146 18.6201 32.2897 20.1352 32.2897Z" fill="white"/>
<path fill-rule="evenodd" clip-rule="evenodd" d="M32.3776 35.9195V32.2895H36.0179C37.5332 32.2895 38.7615 33.5145 38.7615 35.0259V38.6558H35.1212C33.6059 38.6558 32.3776 37.4306 32.3776 35.9195Z" fill="white"/>
<path fill-rule="evenodd" clip-rule="evenodd" d="M36.0179 23.7108H32.3776V20.0805C32.3776 18.5695 33.6059 17.3445 35.1215 17.3445H38.7614V20.9744C38.7614 22.4859 37.5331 23.7108 36.0179 23.7108Z" fill="white"/>
<path fill-rule="evenodd" clip-rule="evenodd" d="M23.7754 20.0805V23.7108H20.1351C18.6199 23.7108 17.3915 22.4856 17.3915 20.9745V17.3442H21.0319C22.5471 17.3442 23.7754 18.5695 23.7754 20.0805Z" fill="white"/>
<path fill-rule="evenodd" clip-rule="evenodd" d="M46.6188 11.2432H44.8795V9.50867C44.8795 8.78653 45.4663 8.20091 46.1908 8.20091H47.9297V9.93547C47.9297 10.6576 47.3428 11.2432 46.6188 11.2432Z" fill="white"/>
<path fill-rule="evenodd" clip-rule="evenodd" d="M11.2737 9.50854V11.2431H9.53455C8.81044 11.2431 8.22279 10.6578 8.22279 9.93571V8.20122H9.96254C10.6865 8.20122 11.2737 8.78641 11.2737 9.50854Z" fill="white"/>
<path fill-rule="evenodd" clip-rule="evenodd" d="M5.22225 14.1215C5.52115 14.2933 5.62326 14.6745 5.45089 14.9726C5.27817 15.2707 4.89596 15.3729 4.59698 15.2007C4.29851 15.0285 4.19568 14.6477 4.36834 14.3495C4.54099 14.0514 4.92285 13.9492 5.22225 14.1215Z" fill="white"/>
<path fill-rule="evenodd" clip-rule="evenodd" d="M2.39836 20.4932C2.73132 20.5824 2.9296 20.924 2.84018 21.2567C2.75084 21.5891 2.40787 21.7865 2.07498 21.6973C1.74131 21.6082 1.54374 21.2666 1.63309 20.9342C1.7225 20.6015 2.06504 20.4041 2.39836 20.4932Z" fill="white"/>
<path fill-rule="evenodd" clip-rule="evenodd" d="M35.6037 2.39252C35.5144 2.72492 35.1716 2.92229 34.8383 2.8332C34.5048 2.74403 34.307 2.40242 34.3964 2.07002C34.4857 1.73726 34.8283 1.54023 35.1619 1.6294C35.4949 1.7185 35.6931 2.06011 35.6037 2.39252Z" fill="white"/>
</svg>
