<svg width="191" height="74" viewBox="0 0 191 74" fill="none" xmlns="http://www.w3.org/2000/svg">
<path fill-rule="evenodd" clip-rule="evenodd" d="M29.2796 38.0193H35.9649V44.7077C35.9649 47.237 34.1031 49.3318 31.6757 49.6944C32.0461 49.0354 32.2578 48.2751 32.2578 47.4653V41.7286H26.5232C25.7138 41.7286 24.954 41.9401 24.2952 42.3106C24.6576 39.8824 26.7511 38.0193 29.2796 38.0193Z" fill="#D48A7B"/>
<path fill-rule="evenodd" clip-rule="evenodd" d="M44.688 35.9811H38.0026V29.2928C38.0026 26.7633 39.8644 24.6691 42.2917 24.3063C41.9215 24.9653 41.7099 25.7254 41.7099 26.5349V32.272H47.4446C48.2538 32.272 49.0137 32.0606 49.6722 31.6901C49.3097 34.1184 47.2164 35.9811 44.688 35.9811Z" fill="#D48A7B"/>
<path fill-rule="evenodd" clip-rule="evenodd" d="M35.9652 29.2925V35.9809H29.2798C26.7515 35.9809 24.6576 34.1186 24.2951 31.6901L24.326 31.7073L24.3278 31.7083L24.388 31.7407L24.4198 31.7575L24.4777 31.7872L24.483 31.79L24.5148 31.8058L24.5196 31.8077L24.5778 31.8357L24.5788 31.8362L24.6111 31.8514L24.6241 31.857L24.6742 31.8797L24.6759 31.8804L24.7086 31.8948L24.719 31.8995L24.7713 31.9218L24.8313 31.9463L24.8766 31.9641L24.9349 31.9864L24.9823 32.0038L25.0437 32.0254L25.0813 32.0381L25.1564 32.0625L25.1828 32.0709L25.2587 32.0936L25.2968 32.1044L25.3685 32.1238L25.4029 32.1322L25.4788 32.1508L25.5117 32.1583L25.5967 32.1768L25.6151 32.1805C25.6459 32.1871 25.677 32.1928 25.7079 32.1984L25.717 32.2003L25.7249 32.2012C25.7554 32.2068 25.7859 32.2118 25.8165 32.2164L25.8295 32.2183L25.8367 32.2192C25.8715 32.2249 25.9064 32.2294 25.9413 32.2338L25.9453 32.2344C25.9796 32.2391 26.0142 32.2428 26.0488 32.2464L26.0661 32.2482C26.0986 32.252 26.1309 32.2539 26.1635 32.2567L26.1788 32.2576C26.2137 32.2604 26.2489 32.2623 26.2839 32.2641L26.2886 32.2644L26.2966 32.2648C26.3322 32.2667 26.3679 32.2676 26.4038 32.2685L26.4053 32.2686L26.4094 32.2687C26.4471 32.2696 26.4849 32.2697 26.5229 32.2697H32.2575V26.5326C32.2575 26.4946 32.2571 26.4568 32.2561 26.419L32.2561 26.4153L32.256 26.4134C32.255 26.3776 32.2537 26.3419 32.252 26.3063L32.2517 26.2978L32.2513 26.2932C32.2496 26.26 32.2475 26.2269 32.2451 26.1938L32.2443 26.1819L32.2435 26.1735C32.241 26.1406 32.2381 26.1079 32.2348 26.0753L32.2331 26.0574C32.2297 26.0259 32.2261 25.9947 32.2223 25.9633L32.2199 25.9442C32.2156 25.9102 32.2106 25.8763 32.2056 25.8425L32.2046 25.836C32.1995 25.8019 32.1938 25.768 32.1878 25.7343L32.1852 25.7193C32.1795 25.6874 32.1732 25.6557 32.1669 25.624L32.1631 25.6053C32.1573 25.5774 32.1514 25.5497 32.1451 25.522L32.1368 25.4861L32.1187 25.4125L32.1094 25.3758L32.0907 25.3068L32.0784 25.2636L32.0611 25.2051L32.046 25.1565L32.0271 25.0984L32.011 25.0507L31.9992 25.0165L31.9871 24.9827L31.9654 24.9243L31.9622 24.9149L31.9494 24.8815L31.9241 24.8182L31.9229 24.8154L31.9093 24.7823L31.8852 24.7255L31.8813 24.7161L31.867 24.6836L31.8376 24.6188L31.8224 24.5863L31.8219 24.5854L31.7936 24.5264L31.7916 24.5218L31.7757 24.49L31.7433 24.4268L31.7268 24.3953L31.6929 24.333L31.6757 24.302C34.1033 24.6646 35.9652 26.7588 35.9652 29.2882V29.2925Z" fill="#D48A7B"/>
<path fill-rule="evenodd" clip-rule="evenodd" d="M27.1344 20.4578V21.9792H21.9695V27.1461H20.4489C17.6655 27.1461 15.4085 24.8892 15.4085 22.1045V15.4162H22.095C24.8778 15.4162 27.1344 17.6732 27.1344 20.4578Z" fill="#D48A7B"/>
<path fill-rule="evenodd" clip-rule="evenodd" d="M20.4487 46.854H21.9697V52.0211H27.1341V53.5425C27.1341 56.327 24.8775 58.5844 22.0947 58.5844H15.4087V51.8957C15.4087 49.1111 17.6652 46.854 20.4487 46.854Z" fill="#D48A7B"/>
<path fill-rule="evenodd" clip-rule="evenodd" d="M46.8333 53.5426V52.0208H51.9982V46.8543H53.5188C56.3022 46.8543 58.5586 49.1112 58.5586 51.8958V58.5843H51.8728C49.0897 58.5843 46.8333 56.3272 46.8333 53.5426Z" fill="#D48A7B"/>
<path fill-rule="evenodd" clip-rule="evenodd" d="M53.5189 27.1464H51.9979V21.9795H46.8335V20.4581C46.8335 17.6734 49.09 15.4159 51.8728 15.4159H58.5585V22.1048C58.5585 24.8889 56.3023 27.1464 53.5189 27.1464Z" fill="#D48A7B"/>
<path fill-rule="evenodd" clip-rule="evenodd" d="M39.3475 5.93L36.9835 8.29506L34.6201 5.93C33.6359 4.94555 33.6359 3.34968 34.6201 2.36504L36.9835 0L39.3475 2.36504C40.3312 3.34968 40.3312 4.94555 39.3475 5.93Z" fill="#D48A7B"/>
<path fill-rule="evenodd" clip-rule="evenodd" d="M5.92689 34.6352L8.29092 37.0004L5.92689 39.3653C4.94314 40.3494 3.34768 40.3494 2.36347 39.3653L0 37.0004L2.36347 34.6352C3.34768 33.6513 4.94314 33.6513 5.92689 34.6352Z" fill="#D48A7B"/>
<path fill-rule="evenodd" clip-rule="evenodd" d="M34.6201 68.0705L36.9841 65.7056L39.3476 68.0705C40.3317 69.0548 40.3317 70.651 39.3476 71.6356L36.9841 74L34.6201 71.6356C33.6364 70.651 33.6364 69.0548 34.6201 68.0705Z" fill="#D48A7B"/>
<path fill-rule="evenodd" clip-rule="evenodd" d="M23.4994 5.02086C23.2598 5.02086 23.0457 4.87787 22.9542 4.65633C22.894 4.511 22.894 4.35024 22.9542 4.20482C23.0146 4.05903 23.1276 3.94607 23.2732 3.88584C23.3453 3.85582 23.4214 3.84039 23.4984 3.84039C23.7381 3.84039 23.9519 3.98338 24.0435 4.20482C24.1038 4.35024 24.1038 4.511 24.0435 4.65633C23.9833 4.80212 23.8702 4.91518 23.7245 4.97541C23.6525 5.00533 23.5764 5.02086 23.4994 5.02086Z" fill="#D48A7B"/>
<path fill-rule="evenodd" clip-rule="evenodd" d="M9.02735 16.1293C8.89705 16.1293 8.77281 16.0873 8.66859 16.0075C8.41115 15.8094 8.36226 15.4382 8.55978 15.1802C8.67233 15.0337 8.84292 14.9495 9.02875 14.9495C9.15906 14.9495 9.28292 14.9915 9.38696 15.0715C9.6443 15.2695 9.69346 15.6406 9.49585 15.8985C9.38322 16.0453 9.21234 16.1293 9.02735 16.1293Z" fill="#D48A7B"/>
<path fill-rule="evenodd" clip-rule="evenodd" d="M2.04823 32.9884C2.02224 32.9884 1.99644 32.9875 1.97027 32.9828C1.81426 32.9623 1.67554 32.8826 1.57982 32.7572C1.48344 32.6325 1.4425 32.4773 1.46297 32.3213C1.5013 32.0287 1.75219 31.8086 2.04598 31.8086C2.07206 31.8086 2.09777 31.8095 2.12441 31.8133C2.28061 31.8338 2.41914 31.9143 2.51496 32.0389C2.61115 32.1641 2.65228 32.3189 2.6318 32.4749C2.59348 32.7675 2.34259 32.9884 2.04823 32.9884Z" fill="#D48A7B"/>
<path fill-rule="evenodd" clip-rule="evenodd" d="M15.5318 65.5581C15.4012 65.5581 15.2774 65.5159 15.1732 65.4361C14.9154 65.238 14.8663 64.8669 15.0643 64.6091C15.177 64.4622 15.3475 64.3787 15.5328 64.3787C15.6632 64.3787 15.7875 64.4203 15.891 64.5001C16.149 64.6983 16.198 65.0694 15.9999 65.3278C15.8874 65.474 15.7168 65.5581 15.5318 65.5581Z" fill="#D48A7B"/>
<path fill-rule="evenodd" clip-rule="evenodd" d="M32.385 72.5413C32.3588 72.5413 32.3332 72.5404 32.307 72.5366C31.9851 72.4942 31.7573 72.1979 31.7997 71.875C31.8379 71.5824 32.0888 71.3623 32.3832 71.3623C32.4094 71.3623 32.435 71.3633 32.4611 71.367C32.7834 71.4095 33.0108 71.7067 32.9683 72.0286C32.93 72.3212 32.6793 72.5413 32.385 72.5413Z" fill="#D48A7B"/>
<path fill-rule="evenodd" clip-rule="evenodd" d="M50.4689 70.1597C50.2291 70.1597 50.0151 70.0166 49.9237 69.7958C49.799 69.4947 49.9424 69.1495 50.2432 69.0247C50.3151 68.9948 50.3908 68.9798 50.4682 68.9798C50.7079 68.9798 50.922 69.1228 51.0134 69.3443C51.0737 69.4897 51.0737 69.65 51.0134 69.7958C50.9532 69.9411 50.8397 70.0542 50.694 70.1145C50.622 70.1448 50.5459 70.1597 50.4689 70.1597Z" fill="#D48A7B"/>
<path fill-rule="evenodd" clip-rule="evenodd" d="M58.4344 9.62202C58.3039 9.62202 58.1802 9.58003 58.0761 9.49988C57.9513 9.40412 57.871 9.26534 57.8505 9.10898C57.83 8.95281 57.8715 8.79813 57.9672 8.67347C58.0798 8.52619 58.2503 8.44211 58.4357 8.44211C58.566 8.44211 58.6903 8.4841 58.794 8.56406C58.9187 8.66028 58.9991 8.79907 59.0196 8.95524C59.04 9.11113 58.9985 9.26647 58.9028 9.39103C58.7904 9.53776 58.6193 9.62202 58.4344 9.62202Z" fill="#D48A7B"/>
<path fill-rule="evenodd" clip-rule="evenodd" d="M41.5845 2.63868C41.5582 2.63868 41.5326 2.63681 41.5064 2.63307C41.35 2.61259 41.2111 2.53207 41.1154 2.40741C41.0198 2.28257 40.9783 2.12733 40.9988 1.97135C41.037 1.67873 41.288 1.45877 41.582 1.45877C41.6078 1.45877 41.6335 1.45971 41.6601 1.46345C41.8165 1.48402 41.9553 1.56435 42.051 1.68967C42.1467 1.81442 42.1883 1.96901 42.1678 2.12509C42.1291 2.41761 41.8782 2.63868 41.5845 2.63868Z" fill="#D48A7B"/>
<path fill-rule="evenodd" clip-rule="evenodd" d="M15.6856 9.60206C15.4545 9.66406 15.2106 9.58147 15.0649 9.39117C14.9692 9.26595 14.9275 9.11137 14.9482 8.95529C14.9686 8.79874 15.0487 8.65996 15.1733 8.5642C15.2355 8.51651 15.3049 8.48227 15.3797 8.46226C15.6109 8.40007 15.8542 8.48285 16.0004 8.67297C16.0962 8.79818 16.1378 8.95295 16.1172 9.10903C16.0967 9.26558 16.0163 9.40435 15.8916 9.50012C15.8299 9.54781 15.7599 9.58242 15.6856 9.60206Z" fill="#D48A7B"/>
<path fill-rule="evenodd" clip-rule="evenodd" d="M4.58032 24.0792C4.45431 24.1135 4.32382 24.1046 4.20249 24.054C3.90252 23.9297 3.75922 23.584 3.88345 23.2836C3.95449 23.113 4.09732 22.9876 4.2768 22.9396C4.4029 22.9055 4.53264 22.9144 4.65407 22.9643C4.9545 23.0891 5.09696 23.4349 4.97357 23.7349C4.90216 23.906 4.75979 24.0312 4.58032 24.0792Z" fill="#D48A7B"/>
<path fill-rule="evenodd" clip-rule="evenodd" d="M9.1806 59.0305C8.94952 59.0927 8.70545 59.01 8.55972 58.8198C8.36221 58.5619 8.41128 58.1903 8.66853 57.9927C8.73079 57.9455 8.8008 57.9108 8.87512 57.8909C9.10628 57.8286 9.3496 57.9113 9.4958 58.1016C9.69341 58.3595 9.64443 58.7306 9.38662 58.9286C9.32492 58.9763 9.25482 59.0109 9.1806 59.0305Z" fill="#D48A7B"/>
<path fill-rule="evenodd" clip-rule="evenodd" d="M23.6512 70.1397C23.5246 70.1734 23.3943 70.1649 23.273 70.1145C22.9725 69.9902 22.8291 69.644 22.9538 69.3439C23.0248 69.1733 23.1678 69.0475 23.3471 68.9999C23.4726 68.9659 23.6032 68.9748 23.7241 69.0242C24.0248 69.1491 24.1679 69.4947 24.0435 69.7957C23.9721 69.9663 23.8297 70.0915 23.6512 70.1397Z" fill="#D48A7B"/>
<path fill-rule="evenodd" clip-rule="evenodd" d="M41.7368 72.5212C41.7111 72.5277 41.6864 72.533 41.6597 72.5362C41.3379 72.5786 41.0414 72.3512 40.9988 72.0282C40.9601 71.7363 41.145 71.4582 41.4294 71.382C41.4547 71.3754 41.4798 71.3699 41.506 71.3666C41.8283 71.324 42.1249 71.5522 42.1675 71.8745C42.2062 72.167 42.0207 72.4451 41.7368 72.5212Z" fill="#D48A7B"/>
<path fill-rule="evenodd" clip-rule="evenodd" d="M58.5881 65.5384C58.3568 65.6006 58.113 65.5174 57.9672 65.3278C57.7692 65.0693 57.8183 64.6982 58.0761 64.5001C58.1381 64.4529 58.2073 64.4187 58.2825 64.3986C58.5138 64.3364 58.7571 64.4194 58.9033 64.6093C58.9991 64.7342 59.04 64.8888 59.0195 65.0449C58.9996 65.2015 58.9187 65.3403 58.7936 65.4361C58.7324 65.4837 58.6623 65.5182 58.5881 65.5384Z" fill="#D48A7B"/>
<path fill-rule="evenodd" clip-rule="evenodd" d="M50.6207 5.00074C50.4946 5.03431 50.3642 5.0259 50.2433 4.97605C50.098 4.91517 49.9844 4.8021 49.9242 4.65669C49.864 4.51099 49.864 4.35071 49.9242 4.20538C49.9948 4.03425 50.1381 3.90855 50.317 3.86104C50.4427 3.82682 50.5735 3.8357 50.694 3.88583C50.8397 3.94643 50.9533 4.05959 51.0135 4.20538C51.0736 4.35071 51.0736 4.51099 51.0135 4.65631C50.9425 4.82726 50.7996 4.95258 50.6207 5.00074Z" fill="#D48A7B"/>
<path fill-rule="evenodd" clip-rule="evenodd" d="M32.5383 2.61828C32.5131 2.62483 32.4877 2.63016 32.4616 2.63381C32.3051 2.65429 32.1506 2.61278 32.0254 2.51645C31.9006 2.42116 31.8208 2.28201 31.8003 2.12574C31.7615 1.83331 31.9464 1.55555 32.2308 1.47906C32.2557 1.47344 32.2809 1.46784 32.3076 1.4641C32.464 1.44297 32.6185 1.48524 32.7432 1.581C32.8685 1.67676 32.9483 1.81563 32.9694 1.97153C33.0072 2.26414 32.8217 2.54225 32.5383 2.61828Z" fill="#D48A7B"/>
<path fill-rule="evenodd" clip-rule="evenodd" d="M38.0024 44.708V38.0195H44.688C47.2163 38.0195 49.3101 39.8823 49.6725 42.3105C49.0139 41.9399 48.254 41.7284 47.4447 41.7284H41.71V47.465C41.71 48.2749 41.9216 49.0353 42.2921 49.6943C39.8646 49.3319 38.0024 47.2375 38.0024 44.708Z" fill="#D48A7B"/>
<path fill-rule="evenodd" clip-rule="evenodd" d="M4.42855 51.081C4.18887 51.081 3.9749 50.9377 3.88339 50.7166C3.75925 50.416 3.90255 50.0703 4.20299 49.9456C4.27478 49.9162 4.35096 49.9008 4.42798 49.9008C4.66766 49.9008 4.88163 50.0438 4.97305 50.2652C5.09737 50.5653 4.95407 50.9115 4.65354 51.0357C4.58166 51.0657 4.50557 51.081 4.42855 51.081Z" fill="#D48A7B"/>
<path fill-rule="evenodd" clip-rule="evenodd" d="M2.20117 42.171C2.17603 42.1785 2.15079 42.1827 2.12462 42.186C1.9686 42.2069 1.81399 42.1655 1.68883 42.0693C1.56366 41.9734 1.48383 41.8346 1.46308 41.6786C1.42448 41.386 1.60984 41.1086 1.89392 41.0318C1.91915 41.0253 1.9443 41.0201 1.97094 41.0165C2.12695 40.9958 2.28156 41.0374 2.40626 41.1333C2.53143 41.229 2.61144 41.3683 2.63192 41.5243C2.67071 41.8169 2.48525 42.0949 2.20117 42.171Z" fill="#D48A7B"/>
<path fill-rule="evenodd" clip-rule="evenodd" d="M77.9779 21.3015C78.9869 21.3015 79.9658 21.4537 80.9141 21.7639C81.6738 22.0008 82.0569 22.5178 82.0569 23.3146V23.3996C82.0569 23.9471 81.832 24.385 81.3942 24.7013C80.9443 25.0358 80.458 25.1209 79.9353 24.9504C79.303 24.7376 78.6525 24.6342 77.9779 24.6342C76.1968 24.6342 74.6769 25.2606 73.4185 26.5195C72.1724 27.7784 71.5462 29.299 71.5462 31.0808C71.5462 32.8506 72.1724 34.3651 73.4185 35.6239C74.6769 36.8828 76.1968 37.5154 77.9779 37.5154C78.6525 37.5154 79.303 37.412 79.9353 37.2113C80.458 37.047 80.9443 37.1201 81.3942 37.4424C81.832 37.7645 82.0569 38.2025 82.0569 38.7621C82.0569 39.5467 81.6738 40.0636 80.9141 40.3129C79.9658 40.6108 78.9869 40.7569 77.9779 40.7569C75.2908 40.7569 72.9991 39.8081 71.1024 37.9045C69.1996 36.007 68.2513 33.7143 68.2513 31.0262C68.2513 28.3441 69.1996 26.0513 71.1024 24.1539C72.9991 22.2502 75.2908 21.3015 77.9779 21.3015ZM92.4033 21.3015C90.3731 21.3015 88.6465 22.013 87.2242 23.4363C85.8198 24.8653 85.1086 26.5927 85.0842 28.6238V39.133C85.0842 39.5891 85.2425 39.9664 85.5644 40.2765C85.8866 40.5988 86.2636 40.7569 86.7074 40.7569H86.7559C87.1998 40.7569 87.5766 40.5988 87.8988 40.2765C88.221 39.9664 88.3792 39.5891 88.3792 39.133V28.6238C88.3914 27.5049 88.7804 26.5561 89.5525 25.7717C90.3366 24.987 91.2849 24.5979 92.4033 24.5979H93.4187C93.8684 24.5979 94.2576 24.4336 94.5738 24.1173C94.8837 23.8071 95.0417 23.424 95.0417 22.974V22.9374C95.0417 22.4875 94.8837 22.1043 94.5738 21.7819C94.2576 21.4598 93.8684 21.3015 93.4187 21.3015H92.4033ZM99.3337 21.3015C99.7836 21.3015 100.16 21.4598 100.47 21.7819C100.793 22.1043 100.951 22.4875 100.951 22.9374V39.133C100.951 39.5891 100.793 39.9664 100.47 40.2765C100.16 40.5988 99.7836 40.7569 99.3337 40.7569H99.2971C98.8472 40.7569 98.4582 40.5988 98.1361 40.2765C97.8199 39.9664 97.6559 39.5891 97.6559 39.133V22.9374C97.6559 22.4875 97.8199 22.1043 98.1361 21.7819C98.4582 21.4598 98.8472 21.3015 99.2971 21.3015H99.3337ZM99.3155 17.9139C98.7683 17.9139 98.3064 17.7255 97.9232 17.3425C97.5464 16.9652 97.3581 16.5031 97.3581 15.9558C97.3581 15.4206 97.5464 14.9643 97.9232 14.5813C98.3064 14.2043 98.7683 14.0156 99.3155 14.0156C99.8504 14.0156 100.306 14.2043 100.683 14.5813C101.078 14.9643 101.273 15.4206 101.273 15.9558C101.273 16.5031 101.078 16.9652 100.683 17.3425C100.306 17.7255 99.8504 17.9139 99.3155 17.9139ZM114.92 21.3015C117.601 21.3015 119.893 22.2502 121.79 24.1539C123.692 26.0513 124.641 28.3441 124.641 31.0262V39.133C124.641 39.5891 124.483 39.9664 124.161 40.2765C123.838 40.5988 123.461 40.7569 123.024 40.7569H122.969C122.531 40.7569 122.148 40.5988 121.826 40.2765C121.51 39.9664 121.346 39.5891 121.346 39.133V38.318C119.504 39.942 117.364 40.7569 114.92 40.7569C112.233 40.7569 109.942 39.8081 108.045 37.9045C106.142 36.007 105.194 33.7143 105.194 31.0262C105.194 28.3441 106.142 26.0513 108.045 24.1539C109.942 22.2502 112.233 21.3015 114.92 21.3015ZM114.92 24.5979C113.139 24.5979 111.619 25.2243 110.361 26.4832C109.115 27.7421 108.489 29.2562 108.489 31.0262C108.489 32.8082 109.115 34.3284 110.361 35.5873C111.619 36.834 113.139 37.4605 114.92 37.4605C116.702 37.4605 118.215 36.834 119.461 35.5873C120.72 34.3284 121.346 32.8082 121.346 31.0262C121.346 29.2562 120.72 27.7421 119.461 26.4832C118.215 25.2243 116.702 24.5979 114.92 24.5979ZM129.875 13.9973C130.319 13.9973 130.695 14.1495 131.018 14.4596C131.34 14.782 131.498 15.165 131.498 15.6151V21.3015H134.702C135.145 21.3015 135.522 21.4598 135.844 21.7819C136.167 22.1043 136.325 22.4875 136.325 22.9374V22.974C136.325 23.424 136.167 23.8071 135.844 24.1173C135.522 24.4336 135.145 24.5979 134.702 24.5979H131.498V35.6969C131.498 36.1832 131.668 36.597 132.015 36.9435C132.361 37.2903 132.781 37.4605 133.279 37.4605H134.702C135.145 37.4605 135.522 37.6187 135.844 37.9411C136.167 38.2634 136.325 38.6465 136.325 39.1027V39.133C136.325 39.5891 136.167 39.9664 135.844 40.2765C135.522 40.5988 135.145 40.7569 134.702 40.7569H133.279C131.875 40.7569 130.677 40.2643 129.68 39.2789C128.695 38.2817 128.203 37.0835 128.203 35.6969V15.6151C128.203 15.165 128.361 14.782 128.683 14.4596C129.005 14.1495 129.382 13.9973 129.826 13.9973H129.875ZM141.152 21.3015C141.601 21.3015 141.978 21.4598 142.288 21.7819C142.611 22.1043 142.768 22.4875 142.768 22.9374V39.133C142.768 39.5891 142.611 39.9664 142.288 40.2765C141.978 40.5988 141.601 40.7569 141.152 40.7569H141.115C140.665 40.7569 140.276 40.5988 139.954 40.2765C139.638 39.9664 139.474 39.5891 139.474 39.133V22.9374C139.474 22.4875 139.638 22.1043 139.954 21.7819C140.276 21.4598 140.665 21.3015 141.115 21.3015H141.152ZM141.133 17.9139C140.586 17.9139 140.124 17.7255 139.741 17.3425C139.364 16.9652 139.176 16.5031 139.176 15.9558C139.176 15.4206 139.364 14.9643 139.741 14.5813C140.124 14.2043 140.586 14.0156 141.133 14.0156C141.668 14.0156 142.124 14.2043 142.501 14.5813C142.896 14.9643 143.091 15.4206 143.091 15.9558C143.091 16.5031 142.896 16.9652 142.501 17.3425C142.124 17.7255 141.668 17.9139 141.133 17.9139ZM148.775 22.299C151.626 28.9401 153.607 33.562 154.726 36.1774C154.726 36.1653 154.744 36.2137 154.793 36.3232C154.866 36.4995 154.951 36.4995 155.042 36.3232L155.079 36.2137L161.048 22.299C161.328 21.6299 161.826 21.3015 162.544 21.3015H162.58C163.158 21.3015 163.608 21.5448 163.93 22.0313C164.252 22.5178 164.301 23.0289 164.076 23.5638L157.449 39.0295C157 40.1789 156.155 40.7569 154.921 40.7569C153.674 40.7569 152.823 40.1789 152.373 39.0295L145.747 23.5638C145.522 23.0289 145.571 22.5178 145.887 22.0313C146.209 21.5448 146.659 21.3015 147.243 21.3015H147.297C148.009 21.3015 148.501 21.6299 148.775 22.299ZM176.1 21.3015C178.781 21.3015 181.073 22.2502 182.969 24.1539C184.872 26.0513 185.82 28.3441 185.82 31.0262V39.133C185.82 39.5891 185.663 39.9664 185.34 40.2765C185.018 40.5988 184.641 40.7569 184.203 40.7569H184.149C183.711 40.7569 183.328 40.5988 183.006 40.2765C182.69 39.9664 182.526 39.5891 182.526 39.133V38.318C180.684 39.942 178.544 40.7569 176.1 40.7569C173.413 40.7569 171.121 39.8081 169.225 37.9045C167.322 36.007 166.374 33.7143 166.374 31.0262C166.374 28.3441 167.322 26.0513 169.225 24.1539C171.121 22.2502 173.413 21.3015 176.1 21.3015ZM176.1 24.5979C174.319 24.5979 172.799 25.2243 171.541 26.4832C170.295 27.7421 169.668 29.2562 169.668 31.0262C169.668 32.8082 170.295 34.3284 171.541 35.5873C172.799 36.834 174.319 37.4605 176.1 37.4605C177.881 37.4605 179.395 36.834 180.641 35.5873C181.899 34.3284 182.526 32.8082 182.526 31.0262C182.526 29.2562 181.899 27.7421 180.641 26.4832C179.395 25.2243 177.881 24.5979 176.1 24.5979Z" fill="#675553"/>
<path fill-rule="evenodd" clip-rule="evenodd" d="M72.2209 47.9343C73.3149 47.9343 74.2502 48.3216 75.0245 49.0986C75.8011 49.8729 76.188 50.8087 76.188 51.9032V55.2121C76.188 55.3982 76.1236 55.5522 75.9922 55.6786C75.8605 55.8104 75.7068 55.8747 75.5283 55.8747H75.5057C75.3271 55.8747 75.1708 55.8104 75.0394 55.6786C74.9103 55.5522 74.8433 55.3982 74.8433 55.2121V54.8793C74.0915 55.5421 73.2182 55.8747 72.2209 55.8747C71.1241 55.8747 70.1888 55.4875 69.4148 54.7107C68.6381 53.9362 68.2513 53.0004 68.2513 51.9032C68.2513 50.8087 68.6381 49.8729 69.4148 49.0986C70.1888 48.3216 71.1241 47.9343 72.2209 47.9343ZM72.2209 49.2796C71.494 49.2796 70.8737 49.5355 70.3599 50.0492C69.8514 50.563 69.596 51.1811 69.596 51.9032C69.596 52.6306 69.8514 53.2512 70.3599 53.7649C70.8737 54.2739 71.494 54.5295 72.2209 54.5295C72.9479 54.5295 73.5656 54.2739 74.0743 53.7649C74.5879 53.2512 74.8433 52.6306 74.8433 51.9032C74.8433 51.1811 74.5879 50.563 74.0743 50.0492C73.5656 49.5355 72.9479 49.2796 72.2209 49.2796ZM79.6767 49.2796C79.4061 49.2796 79.1753 49.374 78.9869 49.5628C78.7983 49.7563 78.7039 49.9872 78.7039 50.2528C78.7039 50.6323 78.8826 50.9155 79.2424 51.104C79.3515 51.1636 79.7707 51.2877 80.4978 51.4815C81.0412 51.6378 81.4382 51.8364 81.6913 52.0795C82.0484 52.4172 82.2297 52.9111 82.2297 53.5539C82.2297 54.1944 82.004 54.7428 81.5522 55.1996C81.0983 55.6489 80.55 55.8747 79.9098 55.8747H78.0118C77.8329 55.8747 77.6792 55.8104 77.5478 55.6786C77.4162 55.5522 77.3518 55.3982 77.3518 55.2121V55.1996C77.3518 55.0135 77.4162 54.8571 77.5478 54.7256C77.6792 54.5938 77.8329 54.5295 78.0118 54.5295H79.9817C80.2545 54.5295 80.4853 54.435 80.6741 54.2466C80.8624 54.0579 80.9567 53.827 80.9567 53.5539C80.9567 53.1966 80.7782 52.9286 80.4183 52.7547C80.3364 52.7176 79.9173 52.5909 79.1605 52.3775C78.6245 52.2161 78.2252 52.0125 77.9694 51.7667C77.6099 51.4117 77.4313 50.908 77.4313 50.2528C77.4313 49.6147 77.657 49.0686 78.1059 48.617C78.5624 48.1628 79.1109 47.9343 79.7509 47.9343H81.0882C81.2718 47.9343 81.4281 47.999 81.5596 48.1305C81.6913 48.262 81.7557 48.4184 81.7557 48.6021V48.617C81.7557 48.8006 81.6913 48.9571 81.5596 49.0835C81.4281 49.2126 81.2718 49.2796 81.0882 49.2796H79.6767ZM85.4253 49.2796C85.1547 49.2796 84.9239 49.374 84.7355 49.5628C84.5469 49.7563 84.4526 49.9872 84.4526 50.2528C84.4526 50.6323 84.6311 50.9155 84.991 51.104C85.1001 51.1636 85.5193 51.2877 86.2464 51.4815C86.7899 51.6378 87.1868 51.8364 87.4398 52.0795C87.797 52.4172 87.9782 52.9111 87.9782 53.5539C87.9782 54.1944 87.7525 54.7428 87.3007 55.1996C86.8468 55.6489 86.2986 55.8747 85.6584 55.8747H83.7604C83.5816 55.8747 83.4279 55.8104 83.2965 55.6786C83.1647 55.5522 83.1003 55.3982 83.1003 55.2121V55.1996C83.1003 55.0135 83.1647 54.8571 83.2965 54.7256C83.4279 54.5938 83.5816 54.5295 83.7604 54.5295H85.7302C86.0032 54.5295 86.234 54.435 86.4226 54.2466C86.611 54.0579 86.7054 53.827 86.7054 53.5539C86.7054 53.1966 86.5267 52.9286 86.1669 52.7547C86.085 52.7176 85.6658 52.5909 84.9091 52.3775C84.373 52.2161 83.9737 52.0125 83.718 51.7667C83.3584 51.4117 83.1799 50.908 83.1799 50.2528C83.1799 49.6147 83.4056 49.0686 83.8545 48.617C84.311 48.1628 84.8596 47.9343 85.4994 47.9343H86.8368C87.0204 47.9343 87.1768 47.999 87.3082 48.1305C87.4398 48.262 87.5042 48.4184 87.5042 48.6021V48.617C87.5042 48.8006 87.4398 48.9571 87.3082 49.0835C87.1768 49.2126 87.0204 49.2796 86.8368 49.2796H85.4253ZM90.0919 47.9343C90.2756 47.9343 90.4296 47.999 90.5559 48.1305C90.6874 48.262 90.752 48.4184 90.752 48.6021V55.2121C90.752 55.3982 90.6874 55.5522 90.5559 55.6786C90.4296 55.8104 90.2756 55.8747 90.0919 55.8747H90.0772C89.8935 55.8747 89.7348 55.8104 89.603 55.6786C89.4743 55.5522 89.4073 55.3982 89.4073 55.2121V48.6021C89.4073 48.4184 89.4743 48.262 89.603 48.1305C89.7348 47.999 89.8935 47.9343 90.0772 47.9343H90.0919ZM90.0844 46.5519C89.861 46.5519 89.6727 46.4748 89.5164 46.3186C89.3624 46.1646 89.2856 45.9759 89.2856 45.7526C89.2856 45.5343 89.3624 45.3479 89.5164 45.1914C89.6727 45.0377 89.861 44.9608 90.0844 44.9608C90.3028 44.9608 90.4888 45.0377 90.6428 45.1914C90.8038 45.3479 90.8833 45.5343 90.8833 45.7526C90.8833 45.9759 90.8038 46.1646 90.6428 46.3186C90.4888 46.4748 90.3028 46.5519 90.0844 46.5519ZM94.5182 49.2796C94.2477 49.2796 94.0169 49.374 93.8286 49.5628C93.6398 49.7563 93.5455 49.9872 93.5455 50.2528C93.5455 50.6323 93.7241 50.9155 94.0839 51.104C94.1931 51.1636 94.6123 51.2877 95.3394 51.4815C95.8829 51.6378 96.2798 51.8364 96.5329 52.0795C96.89 52.4172 97.0713 52.9111 97.0713 53.5539C97.0713 54.1944 96.8455 54.7428 96.3938 55.1996C95.9398 55.6489 95.3916 55.8747 94.7515 55.8747H92.8534C92.6746 55.8747 92.5209 55.8104 92.3895 55.6786C92.2578 55.5522 92.1934 55.3982 92.1934 55.2121V55.1996C92.1934 55.0135 92.2578 54.8571 92.3895 54.7256C92.5209 54.5938 92.6746 54.5295 92.8534 54.5295H94.8233C95.0961 54.5295 95.3269 54.435 95.5156 54.2466C95.704 54.0579 95.7983 53.827 95.7983 53.5539C95.7983 53.1966 95.6198 52.9286 95.2599 52.7547C95.178 52.7176 94.7588 52.5909 94.0021 52.3775C93.4661 52.2161 93.0667 52.0125 92.811 51.7667C92.4515 51.4117 92.2728 50.908 92.2728 50.2528C92.2728 49.6147 92.4986 49.0686 92.9475 48.617C93.404 48.1628 93.9525 47.9343 94.5925 47.9343H95.9297C96.1134 47.9343 96.2697 47.999 96.4011 48.1305C96.5328 48.262 96.5973 48.4184 96.5973 48.6021V48.617C96.5973 48.8006 96.5328 48.9571 96.4011 49.0835C96.2697 49.2126 96.1134 49.2796 95.9297 49.2796H94.5182ZM98.9144 44.9534C99.0957 44.9534 99.2496 45.0154 99.3811 45.1419C99.5125 45.2734 99.5771 45.4298 99.5771 45.6135V47.9343H100.884C101.066 47.9343 101.219 47.999 101.351 48.1305C101.483 48.262 101.547 48.4184 101.547 48.6021V48.617C101.547 48.8006 101.483 48.9571 101.351 49.0835C101.219 49.2126 101.066 49.2796 100.884 49.2796H99.5771V53.8098C99.5771 54.0083 99.6466 54.1769 99.7878 54.3184C99.9292 54.46 100.1 54.5295 100.304 54.5295H100.884C101.066 54.5295 101.219 54.5938 101.351 54.7256C101.483 54.8571 101.547 55.0135 101.547 55.1996V55.2121C101.547 55.3982 101.483 55.5522 101.351 55.6786C101.219 55.8104 101.066 55.8747 100.884 55.8747H100.304C99.7308 55.8747 99.2419 55.6738 98.8352 55.2717C98.4332 54.8646 98.2323 54.3755 98.2323 53.8098V45.6135C98.2323 45.4298 98.2968 45.2734 98.4282 45.1419C98.5596 45.0154 98.7136 44.9534 98.8948 44.9534H98.9144ZM106.316 49.2945C107.129 49.2945 107.797 49.6073 108.32 50.2329L103.721 52.3104C103.701 52.1863 103.691 52.0573 103.691 51.9258C103.691 51.1983 103.946 50.5778 104.455 50.064C104.969 49.5503 105.589 49.2945 106.316 49.2945ZM109.921 50.2528C109.606 49.5601 109.127 49.0016 108.482 48.5798C107.827 48.1504 107.105 47.9343 106.316 47.9343C105.219 47.9343 104.284 48.3216 103.51 49.0986C102.733 49.8729 102.346 50.8087 102.346 51.9032C102.346 53.0004 102.733 53.9362 103.51 54.7107C104.284 55.4875 105.219 55.8747 106.316 55.8747C107.167 55.8747 107.941 55.624 108.633 55.1251C109.313 54.641 109.787 54.0056 110.06 53.2213C110.137 53.0028 110.109 52.8018 109.978 52.6157C109.844 52.427 109.66 52.3327 109.434 52.3327C109.114 52.3327 108.901 52.484 108.794 52.7844C108.613 53.3032 108.301 53.7251 107.857 54.0504C107.395 54.3831 106.881 54.5517 106.316 54.5517C105.462 54.5517 104.775 54.2167 104.252 53.5465C104.658 53.3628 105.546 52.9606 106.918 52.3401C108.023 51.8411 108.916 51.439 109.593 51.134C109.762 51.0568 109.879 50.9327 109.943 50.7615C110.005 50.5878 109.998 50.419 109.921 50.2528ZM107.593 47.3956C107.668 47.4677 107.74 47.5049 107.812 47.5049H108.372C108.489 47.5049 108.571 47.453 108.618 47.3511C108.673 47.2443 108.663 47.1475 108.591 47.0606L107.152 45.2362C107.097 45.1641 107.025 45.1271 106.934 45.1271H105.502C105.413 45.1271 105.341 45.1641 105.284 45.2362L103.852 47.0606C103.777 47.1475 103.768 47.2443 103.822 47.3511C103.869 47.453 103.954 47.5049 104.068 47.5049H104.629C104.7 47.5049 104.775 47.4677 104.847 47.3956L106.221 46.0429L107.593 47.3956ZM112.754 55.2121C112.754 55.3982 112.69 55.5522 112.558 55.6786C112.427 55.8104 112.273 55.8747 112.092 55.8747H112.072C111.891 55.8747 111.737 55.8104 111.605 55.6786C111.474 55.5522 111.409 55.3982 111.409 55.2121V51.2357C111.409 50.3246 111.732 49.5453 112.377 48.9C113.02 48.2569 113.799 47.9343 114.709 47.9343C115.615 47.9343 116.391 48.2569 117.036 48.9C117.679 49.5453 118.002 50.3246 118.002 51.2357V55.2121C118.002 55.3982 117.937 55.5522 117.806 55.6786C117.679 55.8104 117.525 55.8747 117.342 55.8747H117.327C117.143 55.8747 116.984 55.8104 116.853 55.6786C116.724 55.5522 116.657 55.3982 116.657 55.2121V51.2357C116.657 50.6971 116.468 50.2377 116.091 49.8531C115.707 49.4708 115.248 49.2796 114.709 49.2796C114.166 49.2796 113.704 49.4708 113.322 49.8531C112.943 50.2377 112.754 50.6971 112.754 51.2357V55.2121ZM123.207 47.9343C123.619 47.9343 124.018 47.9964 124.405 48.1231C124.715 48.2198 124.872 48.4309 124.872 48.7558V48.7908C124.872 49.014 124.78 49.1927 124.601 49.3218C124.418 49.4583 124.219 49.493 124.006 49.4235C123.748 49.3369 123.482 49.2945 123.207 49.2945C122.48 49.2945 121.86 49.5503 121.346 50.064C120.838 50.5778 120.582 51.1983 120.582 51.9258C120.582 52.6478 120.838 53.2661 121.346 53.7798C121.86 54.2935 122.48 54.5517 123.207 54.5517C123.482 54.5517 123.748 54.5096 124.006 54.4276C124.219 54.3606 124.418 54.3905 124.601 54.522C124.78 54.6535 124.872 54.8322 124.872 55.0607C124.872 55.3809 124.715 55.5919 124.405 55.6935C124.018 55.8152 123.619 55.8747 123.207 55.8747C122.11 55.8747 121.175 55.4875 120.401 54.7107C119.624 53.9362 119.237 53.0004 119.237 51.9032C119.237 50.8087 119.624 49.8729 120.401 49.0986C121.175 48.3216 122.11 47.9343 123.207 47.9343ZM127.06 47.9343C127.244 47.9343 127.398 47.999 127.524 48.1305C127.656 48.262 127.72 48.4184 127.72 48.6021V55.2121C127.72 55.3982 127.656 55.5522 127.524 55.6786C127.398 55.8104 127.244 55.8747 127.06 55.8747H127.045C126.862 55.8747 126.703 55.8104 126.571 55.6786C126.442 55.5522 126.375 55.3982 126.375 55.2121V48.6021C126.375 48.4184 126.442 48.262 126.571 48.1305C126.703 47.999 126.862 47.9343 127.045 47.9343H127.06ZM127.053 46.5519C126.829 46.5519 126.641 46.4748 126.485 46.3186C126.331 46.1646 126.254 45.9759 126.254 45.7526C126.254 45.5343 126.331 45.3479 126.485 45.1914C126.641 45.0377 126.829 44.9608 127.053 44.9608C127.271 44.9608 127.457 45.0377 127.611 45.1914C127.772 45.3479 127.852 45.5343 127.852 45.7526C127.852 45.9759 127.772 46.1646 127.611 46.3186C127.457 46.4748 127.271 46.5519 127.053 46.5519ZM133.422 47.9343C134.516 47.9343 135.451 48.3216 136.225 49.0986C137.002 49.8729 137.389 50.8087 137.389 51.9032V55.2121C137.389 55.3982 137.324 55.5522 137.193 55.6786C137.061 55.8104 136.908 55.8747 136.729 55.8747H136.707C136.528 55.8747 136.372 55.8104 136.24 55.6786C136.111 55.5522 136.044 55.3982 136.044 55.2121V54.8793C135.292 55.5421 134.419 55.8747 133.422 55.8747C132.325 55.8747 131.39 55.4875 130.616 54.7107C129.839 53.9362 129.452 53.0004 129.452 51.9032C129.452 50.8087 129.839 49.8729 130.616 49.0986C131.39 48.3216 132.325 47.9343 133.422 47.9343ZM133.422 49.2796C132.695 49.2796 132.074 49.5355 131.561 50.0492C131.052 50.563 130.797 51.1811 130.797 51.9032C130.797 52.6306 131.052 53.2512 131.561 53.7649C132.074 54.2739 132.695 54.5295 133.422 54.5295C134.149 54.5295 134.766 54.2739 135.275 53.7649C135.789 53.2512 136.044 52.6306 136.044 51.9032C136.044 51.1811 135.789 50.563 135.275 50.0492C134.766 49.5355 134.149 49.2796 133.422 49.2796ZM145.835 47.9343C145.006 47.9343 144.301 48.2249 143.721 48.8057C143.147 49.3889 142.857 50.0937 142.848 50.9229V55.2121C142.848 55.3982 142.912 55.5522 143.043 55.6786C143.175 55.8104 143.329 55.8747 143.51 55.8747H143.53C143.711 55.8747 143.865 55.8104 143.996 55.6786C144.128 55.5522 144.192 55.3982 144.192 55.2121V50.9229C144.197 50.4662 144.356 50.0789 144.671 49.7586C144.991 49.4384 145.378 49.2796 145.835 49.2796H146.249C146.433 49.2796 146.591 49.2126 146.72 49.0835C146.847 48.9571 146.911 48.8006 146.911 48.617V48.6021C146.911 48.4184 146.847 48.262 146.72 48.1305C146.591 47.999 146.433 47.9343 146.249 47.9343H145.835ZM151.462 49.2945C152.275 49.2945 152.943 49.6073 153.466 50.2329L148.866 52.3104C148.847 52.1863 148.837 52.0573 148.837 51.9258C148.837 51.1983 149.092 50.5778 149.601 50.064C150.114 49.5503 150.735 49.2945 151.462 49.2945ZM155.066 50.2528C154.751 49.5601 154.273 49.0016 153.627 48.5798C152.972 48.1504 152.251 47.9343 151.462 47.9343C150.365 47.9343 149.429 48.3216 148.655 49.0986C147.879 49.8729 147.492 50.8087 147.492 51.9032C147.492 53.0004 147.879 53.9362 148.655 54.7107C149.429 55.4875 150.365 55.8747 151.462 55.8747C152.313 55.8747 153.087 55.624 153.779 55.1251C154.459 54.641 154.933 54.0056 155.206 53.2213C155.282 53.0028 155.255 52.8018 155.124 52.6157C154.99 52.427 154.806 52.3327 154.58 52.3327C154.26 52.3327 154.047 52.484 153.94 52.7844C153.759 53.3032 153.446 53.7251 153.002 54.0504C152.541 54.3831 152.027 54.5517 151.462 54.5517C150.608 54.5517 149.921 54.2167 149.397 53.5465C149.804 53.3628 150.692 52.9606 152.064 52.3401C153.169 51.8411 154.062 51.439 154.739 51.134C154.908 51.0568 155.024 50.9327 155.089 50.7615C155.151 50.5878 155.144 50.419 155.066 50.2528ZM157.9 55.2121C157.9 55.3982 157.836 55.5522 157.704 55.6786C157.573 55.8104 157.419 55.8747 157.237 55.8747H157.218C157.037 55.8747 156.883 55.8104 156.751 55.6786C156.62 55.5522 156.555 55.3982 156.555 55.2121V51.2132C156.555 50.3121 156.875 49.5378 157.515 48.8924C158.156 48.2546 158.927 47.9343 159.833 47.9343C160.914 47.9343 161.783 48.3661 162.443 49.2277C163.098 48.3661 163.964 47.9343 165.045 47.9343C165.951 47.9343 166.725 48.2546 167.363 48.8924C168.003 49.5378 168.323 50.3121 168.323 51.2132V55.2121C168.323 55.3982 168.261 55.5522 168.135 55.6786C168.003 55.8104 167.847 55.8747 167.663 55.8747H167.648C167.462 55.8747 167.308 55.8104 167.182 55.6786C167.05 55.5522 166.986 55.3982 166.986 55.2121V51.2132C166.986 50.6796 166.797 50.2255 166.42 49.8456C166.04 49.4684 165.584 49.2796 165.045 49.2796C164.512 49.2796 164.055 49.4684 163.678 49.8456C163.301 50.2255 163.113 50.6796 163.113 51.2132V55.2121C163.113 55.3982 163.046 55.5522 162.914 55.6786C162.79 55.8104 162.634 55.8747 162.45 55.8747H162.435C162.252 55.8747 162.093 55.8104 161.964 55.6786C161.833 55.5522 161.768 55.3982 161.768 55.2121V51.2132C161.768 50.6796 161.577 50.2255 161.2 49.8456C160.823 49.4684 160.366 49.2796 159.833 49.2796C159.299 49.2796 158.845 49.4684 158.468 49.8456C158.089 50.2255 157.9 50.6796 157.9 51.2132V55.2121ZM173.528 49.2945C174.255 49.2945 174.873 49.5503 175.382 50.064C175.895 50.5778 176.151 51.1983 176.151 51.9258C176.151 52.6478 175.895 53.2661 175.382 53.7798C174.873 54.2935 174.255 54.5517 173.528 54.5517C172.801 54.5517 172.181 54.2935 171.667 53.7798C171.159 53.2661 170.903 52.6478 170.903 51.9258C170.903 51.1983 171.159 50.5778 171.667 50.064C172.181 49.5503 172.801 49.2945 173.528 49.2945ZM173.528 47.9343C172.432 47.9343 171.496 48.3216 170.722 49.0986C169.946 49.8729 169.559 50.8087 169.559 51.9032C169.559 53.0004 169.946 53.9362 170.722 54.7107C171.496 55.4875 172.432 55.8747 173.528 55.8747C174.622 55.8747 175.558 55.4875 176.334 54.7107C177.109 53.9362 177.495 53.0004 177.495 51.9032C177.495 50.8087 177.109 49.8729 176.334 49.0986C175.558 48.3216 174.622 47.9343 173.528 47.9343ZM179.413 44.9534C179.595 44.9534 179.749 45.0154 179.88 45.1419C180.011 45.2734 180.076 45.4298 180.076 45.6135V47.9343H181.383C181.565 47.9343 181.718 47.999 181.85 48.1305C181.981 48.262 182.046 48.4184 182.046 48.6021V48.617C182.046 48.8006 181.981 48.9571 181.85 49.0835C181.718 49.2126 181.565 49.2796 181.383 49.2796H180.076V53.8098C180.076 54.0083 180.145 54.1769 180.287 54.3184C180.428 54.46 180.599 54.5295 180.803 54.5295H181.383C181.565 54.5295 181.718 54.5938 181.85 54.7256C181.981 54.8571 182.046 55.0135 182.046 55.1996V55.2121C182.046 55.3982 181.981 55.5522 181.85 55.6786C181.718 55.8104 181.565 55.8747 181.383 55.8747H180.803C180.23 55.8747 179.741 55.6738 179.334 55.2717C178.932 54.8646 178.731 54.3755 178.731 53.8098V45.6135C178.731 45.4298 178.796 45.2734 178.927 45.1419C179.058 45.0154 179.212 44.9534 179.394 44.9534H179.413ZM187.033 47.9343C188.127 47.9343 189.062 48.3216 189.837 49.0986C190.613 49.8729 191 50.8087 191 51.9032V55.2121C191 55.3982 190.936 55.5522 190.804 55.6786C190.673 55.8104 190.519 55.8747 190.34 55.8747H190.318C190.139 55.8747 189.983 55.8104 189.851 55.6786C189.722 55.5522 189.655 55.3982 189.655 55.2121V54.8793C188.904 55.5421 188.03 55.8747 187.033 55.8747C185.936 55.8747 185.001 55.4875 184.227 54.7107C183.45 53.9362 183.063 53.0004 183.063 51.9032C183.063 50.8087 183.45 49.8729 184.227 49.0986C185.001 48.3216 185.936 47.9343 187.033 47.9343ZM187.033 49.2796C186.306 49.2796 185.686 49.5355 185.172 50.0492C184.664 50.563 184.408 51.1811 184.408 51.9032C184.408 52.6306 184.664 53.2512 185.172 53.7649C185.686 54.2739 186.306 54.5295 187.033 54.5295C187.76 54.5295 188.378 54.2739 188.886 53.7649C189.4 53.2512 189.655 52.6306 189.655 51.9032C189.655 51.1811 189.4 50.563 188.886 50.0492C188.378 49.5355 187.76 49.2796 187.033 49.2796Z" fill="#675553"/>
<path fill-rule="evenodd" clip-rule="evenodd" d="M53.5139 68.0313C53.2864 67.6373 53.4215 67.1335 53.8153 66.9064C54.2084 66.6788 54.712 66.814 54.9395 67.2079C55.1669 67.6018 55.0321 68.1051 54.6382 68.3332C54.2445 68.5601 53.741 68.4252 53.5139 68.0313Z" fill="#675553"/>
<path fill-rule="evenodd" clip-rule="evenodd" d="M12.5592 59.1433H14.8502V61.4354C14.8502 62.3895 14.0767 63.1634 13.1229 63.1634H10.8319V60.8708C10.8319 59.9166 11.6053 59.1433 12.5592 59.1433Z" fill="#675553"/>
<path fill-rule="evenodd" clip-rule="evenodd" d="M59.1172 61.4355V59.1434H61.4083C62.3621 59.1434 63.1357 59.9167 63.1357 60.871V63.1631H60.8445C59.8903 63.1631 59.1172 62.3896 59.1172 61.4355Z" fill="#675553"/>
<path fill-rule="evenodd" clip-rule="evenodd" d="M6.05556 53.9132C6.44919 53.6861 6.95237 53.8211 7.1798 54.2151C7.40732 54.6085 7.27187 55.1122 6.87843 55.3398C6.4848 55.567 5.98133 55.4324 5.75381 55.0384C5.52676 54.6445 5.66183 54.1407 6.05556 53.9132Z" fill="#675553"/>
<path fill-rule="evenodd" clip-rule="evenodd" d="M18.6519 67.1182C18.8789 66.7242 19.3824 66.5893 19.7762 66.8169C20.1699 67.0444 20.3049 67.5482 20.0779 67.9421C19.8499 68.3355 19.3469 68.471 18.9537 68.243C18.5594 68.0159 18.4249 67.5121 18.6519 67.1182Z" fill="#675553"/>
<path fill-rule="evenodd" clip-rule="evenodd" d="M2.73341 45.329C3.17247 45.2112 3.62415 45.4719 3.74184 45.9112C3.85952 46.3505 3.599 46.8018 3.15994 46.9195C2.72088 47.0373 2.26911 46.7767 2.15142 46.3374C2.0342 45.8982 2.29482 45.4467 2.73341 45.329Z" fill="#675553"/>
<path fill-rule="evenodd" clip-rule="evenodd" d="M27.0681 70.8388C27.1859 70.3995 27.6375 70.1388 28.0766 70.2565C28.5157 70.3744 28.7759 70.8258 28.6586 71.265C28.5408 71.7047 28.0896 71.9649 27.6502 71.8472C27.2115 71.7294 26.9504 71.2781 27.0681 70.8388Z" fill="#675553" stroke="#675553" stroke-width="0.288"/>
<path fill-rule="evenodd" clip-rule="evenodd" d="M45.3089 71.265C45.1911 70.8263 45.4518 70.3743 45.8909 70.2565C46.3305 70.1388 46.7811 70.3991 46.8989 70.8388C47.0166 71.2781 46.7564 71.7295 46.3168 71.8472C45.8778 71.9651 45.4266 71.7042 45.3089 71.265Z" fill="#675553"/>
<path fill-rule="evenodd" clip-rule="evenodd" d="M20.0778 6.05849C20.3053 6.45248 20.1704 6.95616 19.7766 7.18322C19.3833 7.41084 18.8797 7.2758 18.6523 6.8819C18.4247 6.48791 18.5598 5.98461 18.9535 5.75699C19.3474 5.52946 19.8509 5.6646 20.0778 6.05849Z" fill="#675553"/>
<path fill-rule="evenodd" clip-rule="evenodd" d="M55.3158 6.8822C55.0887 7.27609 54.5852 7.41066 54.1915 7.1836C53.7976 6.95607 53.6628 6.45276 53.8897 6.05877C54.1177 5.66488 54.6207 5.52984 55.0141 5.7569C55.4079 5.98443 55.5428 6.48821 55.3158 6.8822Z" fill="#675553"/>
<path fill-rule="evenodd" clip-rule="evenodd" d="M28.6587 2.73534C28.7764 3.17459 28.5159 3.62599 28.0768 3.74373C27.6372 3.86147 27.1865 3.60084 27.0688 3.16159C26.9511 2.72225 27.2113 2.27037 27.6507 2.15319C28.0898 2.03536 28.541 2.2961 28.6587 2.73534Z" fill="#675553"/>
<path fill-rule="evenodd" clip-rule="evenodd" d="M21.0841 32.2705L25.8116 37L21.0841 41.73C19.1158 43.6992 15.9251 43.6992 13.9569 41.73L9.22937 37L13.9569 32.2705C15.9251 30.3018 19.1158 30.3018 21.0841 32.2705Z" fill="#675553"/>
<path fill-rule="evenodd" clip-rule="evenodd" d="M32.2564 52.9068L36.9838 48.1773L41.7112 52.9068C43.6795 54.876 43.6795 58.068 41.7112 60.0372L36.9838 64.7667L32.2564 60.0372C30.2882 58.068 30.2882 54.876 32.2564 52.9068Z" fill="#675553"/>
<path fill-rule="evenodd" clip-rule="evenodd" d="M52.8837 41.7299L48.1562 36.9998L52.8837 32.2705C54.852 30.3017 58.0427 30.3017 60.011 32.2705L64.7385 36.9998L60.011 41.7299C58.0427 43.699 54.852 43.699 52.8837 41.7299Z" fill="#675553"/>
<path fill-rule="evenodd" clip-rule="evenodd" d="M41.7114 21.0934L36.9839 25.8229L32.2564 21.0934C30.2882 19.1248 30.2882 15.9323 32.2564 13.9635L36.9839 9.23358L41.7114 13.9635C43.6796 15.9323 43.6796 19.1248 41.7114 21.0934Z" fill="#675553"/>
<path fill-rule="evenodd" clip-rule="evenodd" d="M26.5231 42.6685H31.3182V47.4653C31.3182 49.462 29.7003 51.0812 27.7039 51.0812H22.9093V46.284C22.9093 44.2872 24.5273 42.6685 26.5231 42.6685Z" fill="#675553"/>
<path fill-rule="evenodd" clip-rule="evenodd" d="M42.6497 47.465V42.6683H47.4447C49.4407 42.6683 51.0587 44.287 51.0587 46.2843V51.0809H46.2636C44.2675 51.0809 42.6497 49.4619 42.6497 47.465Z" fill="#675553"/>
<path fill-rule="evenodd" clip-rule="evenodd" d="M47.4446 31.3322H42.6494V26.5349C42.6494 24.5382 44.2674 22.9195 46.2638 22.9195H51.0584V27.7162C51.0584 29.7135 49.4404 31.3322 47.4446 31.3322Z" fill="#675553"/>
<path fill-rule="evenodd" clip-rule="evenodd" d="M31.3181 26.5351V31.3322H26.5231C24.5271 31.3322 22.9091 29.7131 22.9091 27.7164V22.9191H27.7043C29.7001 22.9191 31.3181 24.5384 31.3181 26.5351Z" fill="#675553"/>
<path fill-rule="evenodd" clip-rule="evenodd" d="M61.4084 14.8572H59.1173V12.5651C59.1173 11.6109 59.8903 10.837 60.8447 10.837H63.1352V13.1291C63.1352 14.0833 62.3621 14.8572 61.4084 14.8572Z" fill="#675553"/>
<path fill-rule="evenodd" clip-rule="evenodd" d="M14.8503 12.5649V14.857H12.5594C11.6056 14.857 10.8315 14.0837 10.8315 13.1294V10.8374H13.1232C14.0768 10.8374 14.8503 11.6107 14.8503 12.5649Z" fill="#675553"/>
<path fill-rule="evenodd" clip-rule="evenodd" d="M6.87892 18.6606C7.27265 18.8876 7.40716 19.3913 7.18011 19.7853C6.95259 20.1792 6.44912 20.3142 6.0553 20.0866C5.66214 19.8591 5.52669 19.3559 5.75412 18.9619C5.98155 18.568 6.48455 18.4328 6.87892 18.6606Z" fill="#675553"/>
<path fill-rule="evenodd" clip-rule="evenodd" d="M3.16 27.0804C3.59859 27.1982 3.85976 27.6496 3.74198 28.0893C3.62429 28.5286 3.17252 28.7893 2.73402 28.6715C2.29449 28.5537 2.03426 28.1023 2.15194 27.6631C2.26972 27.2234 2.72094 26.9626 3.16 27.0804Z" fill="#675553"/>
<path fill-rule="evenodd" clip-rule="evenodd" d="M46.8994 3.16159C46.7817 3.60084 46.3301 3.86165 45.891 3.74391C45.4518 3.62608 45.1913 3.17467 45.309 2.73543C45.4267 2.29571 45.8779 2.03535 46.3174 2.15318C46.756 2.27092 47.0171 2.72234 46.8994 3.16159Z" fill="#675553"/>
</svg>
