<svg width="189" height="147" viewBox="0 0 189 147" fill="none" xmlns="http://www.w3.org/2000/svg">
<path d="M19.3238 22.6761C21.4523 22.6761 23.1778 21.1554 23.1778 19.2794C23.1778 17.4035 21.4523 15.8828 19.3238 15.8828C17.1953 15.8828 15.4697 17.4035 15.4697 19.2794C15.4697 21.1554 17.1953 22.6761 19.3238 22.6761Z" fill="url(#paint0_linear_207_219)"/>
<path d="M27.4173 22.6761C29.5458 22.6761 31.2713 21.1554 31.2713 19.2794C31.2713 17.4035 29.5458 15.8828 27.4173 15.8828C25.2888 15.8828 23.5633 17.4035 23.5633 19.2794C23.5633 21.1554 25.2888 22.6761 27.4173 22.6761Z" fill="url(#paint1_linear_207_219)"/>
<path d="M39.3648 19.2794C39.3648 21.1554 37.6393 22.6761 35.5108 22.6761C33.3823 22.6761 31.6567 21.1554 31.6567 19.2794C31.6567 17.4035 33.3823 15.8828 35.5108 15.8828C37.6393 15.8828 39.3648 17.4035 39.3648 19.2794Z" fill="url(#paint2_linear_207_219)"/>
<path fill-rule="evenodd" clip-rule="evenodd" d="M23.0254 121.705C21.7007 121.705 20.6269 122.773 20.6269 124.091C20.6269 125.409 21.7007 126.477 23.0254 126.477H165.975C167.299 126.477 168.373 125.409 168.373 124.091C168.373 122.773 167.299 121.705 165.975 121.705H159.235C159.251 121.548 159.259 121.388 159.259 121.227V63C159.259 60.3641 157.111 58.2273 154.462 58.2273H132.396C129.747 58.2273 127.599 60.3641 127.599 63V121.227C127.599 121.388 127.607 121.548 127.623 121.705H110.306C110.322 121.548 110.33 121.388 110.33 121.227V84C110.33 81.3641 108.182 79.2273 105.533 79.2273H83.467C80.8177 79.2273 78.67 81.3641 78.67 84V121.227C78.67 121.388 78.6781 121.548 78.6937 121.705H62.3367C62.3524 121.548 62.3604 121.388 62.3604 121.227V96.4091C62.3604 93.7732 60.2127 91.6364 57.5634 91.6364H35.4975C32.8482 91.6364 30.7005 93.7732 30.7005 96.4091V121.227C30.7005 121.388 30.7085 121.548 30.7242 121.705H23.0254ZM105.533 84H83.467V121.227H105.533V84ZM35.4975 96.4091H57.5634V121.227H35.4975V96.4091ZM154.462 63H132.396V121.227H154.462V63Z" fill="url(#paint3_linear_207_219)"/>
<path d="M56.4238 63.7697C57.8231 62.294 58.5228 60.4747 58.5228 58.3115C58.5228 56.0813 57.6269 54.22 55.835 52.7276C54.0602 51.2352 51.7477 50.1621 48.8978 49.5081C47.2253 49.1392 45.8345 48.6277 44.7252 47.9738C43.6159 47.303 43.0613 46.3388 43.0613 45.0812C43.0613 43.9074 43.5477 43.0103 44.5204 42.3899C45.5102 41.7694 46.7304 41.4592 48.181 41.4592C49.1196 41.4592 50.0497 41.6269 50.9713 41.9623C51.9099 42.2809 52.7205 42.6582 53.4031 43.0941C54.0858 43.5134 54.5295 43.8571 54.7342 44.1254L56.7821 40.2519C56.3384 39.6985 55.5705 39.1452 54.4783 38.5918C53.4031 38.0384 52.1403 37.6276 50.6897 37.3593V35.4854C50.6897 33.8115 49.3258 32.4545 47.6434 32.4545C45.9611 32.4545 44.5972 33.8115 44.5972 35.4854V37.3342C42.9248 37.6192 41.4912 38.1474 40.2966 38.9188C39.1191 39.6901 38.2146 40.6376 37.5832 41.7611C36.9688 42.8678 36.6616 44.0919 36.6616 45.4333C36.6616 47.2276 37.0712 48.7284 37.8904 49.9357C38.7095 51.1262 39.7676 52.0737 41.0646 52.7779C42.3616 53.4822 43.8975 54.0859 45.6723 54.5889C46.9864 54.9578 48.053 55.31 48.8722 55.6453C49.6913 55.9639 50.3825 56.3832 50.9457 56.903C51.5259 57.4228 51.816 58.06 51.816 58.8146C51.816 60.1728 51.3211 61.1706 50.3313 61.8078C49.3585 62.4282 48.1639 62.7384 46.7475 62.7384C45.587 62.7384 44.4436 62.5791 43.3173 62.2605C42.1909 61.9251 41.1926 61.5227 40.3222 61.0532C39.4519 60.5669 38.7778 60.1058 38.2999 59.6698L36.4569 63.7445C38.4365 65.3543 41.1499 66.3604 44.5972 66.7628V67.6055C44.5972 69.2794 45.9611 70.6364 47.6434 70.6364C49.3258 70.6364 50.6897 69.2794 50.6897 67.6055V66.6371C53.1301 66.1843 55.0414 65.2285 56.4238 63.7697Z" fill="url(#paint4_linear_207_219)"/>
<path fill-rule="evenodd" clip-rule="evenodd" d="M18.5753 0H170.425C179.742 0 189 6.85257 189 17.2849V129.715C189 140.147 179.742 147 170.425 147H18.5753C9.25793 147 0 140.147 0 129.715V17.2849C0 6.85257 9.25793 0 18.5753 0ZM18.5753 7.43448C12.4026 7.43448 7.39858 11.8447 7.39858 17.2849V129.715C7.39858 135.155 12.4026 139.566 18.5753 139.566H170.425C176.597 139.566 181.601 135.155 181.601 129.715V17.2849C181.601 11.8446 176.597 7.43448 170.425 7.43448H18.5753Z" fill="url(#paint5_linear_207_219)"/>
<defs>
<linearGradient id="paint0_linear_207_219" x1="94.5" y1="0" x2="94.5" y2="147" gradientUnits="userSpaceOnUse">
<stop stop-color="white"/>
<stop offset="1" stop-color="#D5F3DE"/>
</linearGradient>
<linearGradient id="paint1_linear_207_219" x1="94.5" y1="0" x2="94.5" y2="147" gradientUnits="userSpaceOnUse">
<stop stop-color="white"/>
<stop offset="1" stop-color="#D5F3DE"/>
</linearGradient>
<linearGradient id="paint2_linear_207_219" x1="94.5" y1="0" x2="94.5" y2="147" gradientUnits="userSpaceOnUse">
<stop stop-color="white"/>
<stop offset="1" stop-color="#D5F3DE"/>
</linearGradient>
<linearGradient id="paint3_linear_207_219" x1="94.5" y1="0" x2="94.5" y2="147" gradientUnits="userSpaceOnUse">
<stop stop-color="white"/>
<stop offset="1" stop-color="#D5F3DE"/>
</linearGradient>
<linearGradient id="paint4_linear_207_219" x1="94.5" y1="0" x2="94.5" y2="147" gradientUnits="userSpaceOnUse">
<stop stop-color="white"/>
<stop offset="1" stop-color="#D5F3DE"/>
</linearGradient>
<linearGradient id="paint5_linear_207_219" x1="94.5" y1="0" x2="94.5" y2="147" gradientUnits="userSpaceOnUse">
<stop stop-color="white"/>
<stop offset="1" stop-color="#D5F3DE"/>
</linearGradient>
</defs>
</svg>
