<svg width="35" height="39" viewBox="0 0 35 39" fill="none" xmlns="http://www.w3.org/2000/svg">
<path fill-rule="evenodd" clip-rule="evenodd" d="M15.4829 20.0372H19.0181V23.5622C19.0181 24.8952 18.0335 25.9992 16.7499 26.1903C16.9458 25.843 17.0577 25.4423 17.0577 25.0155V21.9921H14.0253C13.5973 21.9921 13.1955 22.1036 12.8472 22.2988C13.0388 21.0191 14.1458 20.0372 15.4829 20.0372Z" fill="#D48A7B"/>
<path fill-rule="evenodd" clip-rule="evenodd" d="M23.6307 18.963H20.0955V15.4381C20.0955 14.105 21.08 13.0013 22.3635 12.8101C22.1678 13.1574 22.0559 13.558 22.0559 13.9846V17.0082H25.0883C25.5163 17.0082 25.9181 16.8968 26.2663 16.7015C26.0746 17.9813 24.9677 18.963 23.6307 18.963Z" fill="#D48A7B"/>
<path fill-rule="evenodd" clip-rule="evenodd" d="M19.0183 18.9629H15.483C14.1461 18.9629 13.0389 17.9814 12.8472 16.7016L12.8635 16.7106L12.8645 16.7111L12.8963 16.7282L12.9131 16.737L12.9437 16.7527L12.9465 16.7542L12.9633 16.7625L12.9659 16.7635L12.9966 16.7783L13.0142 16.7865L13.0211 16.7895L13.0476 16.8015L13.0485 16.8019L13.0658 16.8094L13.0713 16.8119L13.099 16.8236L13.1307 16.8365L13.1547 16.846L13.1855 16.8577L13.2105 16.8669L13.243 16.8782L13.2629 16.8849L13.3026 16.8978L13.3166 16.9022L13.3567 16.9142L13.3769 16.9199L13.4148 16.9301L13.4731 16.9443L13.4905 16.9483L13.5354 16.958L13.5452 16.96C13.5615 16.9635 13.5779 16.9665 13.5943 16.9694L13.5991 16.9704L13.6033 16.9709C13.6194 16.9739 13.6355 16.9765 13.6517 16.9789L13.6586 16.9799L13.6624 16.9804C13.6808 16.9834 13.6992 16.9857 13.7177 16.9881L13.7198 16.9884C13.7379 16.9909 13.7562 16.9928 13.7745 16.9947L13.7837 16.9957C13.8008 16.9977 13.8179 16.9987 13.8352 17.0001L13.8433 17.0006C13.8617 17.0021 13.8803 17.0031 13.8988 17.0041L13.9013 17.0042L13.9056 17.0044C13.9243 17.0054 13.9432 17.0059 13.9622 17.0064L13.9652 17.0065C13.9851 17.007 14.0051 17.007 14.0252 17.007H17.0577V13.9834C17.0577 13.9634 17.0574 13.9435 17.0569 13.9235L17.0569 13.9216C17.0564 13.9027 17.0556 13.8829 17.0548 13.8641L17.0546 13.8597L17.0544 13.8572C17.0535 13.8397 17.0523 13.8223 17.0511 13.8048L17.0507 13.7986L17.0503 13.7941C17.0489 13.7768 17.0474 13.7596 17.0457 13.7424L17.0447 13.733C17.0429 13.7164 17.0411 13.6999 17.039 13.6834L17.0378 13.6733C17.0355 13.6554 17.0329 13.6375 17.0302 13.6197L17.0297 13.6163C17.027 13.5983 17.024 13.5804 17.0208 13.5627L17.0194 13.5547C17.0164 13.5379 17.0131 13.5212 17.0097 13.5046L17.0077 13.4947C17.0047 13.48 17.0015 13.4654 16.9982 13.4508L16.9938 13.4319L16.9843 13.3931L16.9793 13.3737L16.9694 13.3373L16.963 13.3146L16.9538 13.2838L16.9458 13.2581L16.9358 13.2275L16.9273 13.2024L16.921 13.1844L16.9147 13.1666L16.9032 13.1358L16.9015 13.1308L16.8947 13.1132L16.8814 13.0799L16.8807 13.0784L16.8735 13.0609L16.8608 13.031L16.8587 13.0261L16.8512 13.0089L16.8356 12.9748L16.8276 12.9576L16.8124 12.9261L16.8113 12.9236L16.8029 12.9069L16.7858 12.8736L16.777 12.857L16.7591 12.8241L16.75 12.8078C18.0337 12.9989 19.0183 14.1026 19.0183 15.4357V18.9629Z" fill="#D48A7B"/>
<path fill-rule="evenodd" clip-rule="evenodd" d="M14.3486 10.7818V11.5836H11.6173V14.3067H10.8133C9.34144 14.3067 8.14795 13.1173 8.14795 11.6497V8.12474H11.6837C13.1553 8.12474 14.3486 9.31426 14.3486 10.7818Z" fill="#D48A7B"/>
<path fill-rule="evenodd" clip-rule="evenodd" d="M10.8131 24.6933H11.6174V27.4165H14.3483V28.2184C14.3483 29.6859 13.155 30.8756 11.6835 30.8756H8.14795V27.3504C8.14795 25.8829 9.34119 24.6933 10.8131 24.6933Z" fill="#D48A7B"/>
<path fill-rule="evenodd" clip-rule="evenodd" d="M24.7651 28.2184V27.4164H27.4963V24.6935H28.3004C29.7723 24.6935 30.9654 25.8829 30.9654 27.3505V30.8755H27.43C25.9583 30.8755 24.7651 29.6859 24.7651 28.2184Z" fill="#D48A7B"/>
<path fill-rule="evenodd" clip-rule="evenodd" d="M28.3006 14.3069H27.4963V11.5838H24.7654V10.7819C24.7654 9.31436 25.9586 8.12459 27.4302 8.12459H30.9655V11.6498C30.9655 13.1171 29.7725 14.3069 28.3006 14.3069Z" fill="#D48A7B"/>
<path fill-rule="evenodd" clip-rule="evenodd" d="M20.8069 3.12527L19.5568 4.37172L18.307 3.12527C17.7866 2.60644 17.7866 1.76537 18.307 1.24644L19.5568 0L20.8069 1.24644C21.327 1.76537 21.327 2.60644 20.8069 3.12527Z" fill="#D48A7B"/>
<path fill-rule="evenodd" clip-rule="evenodd" d="M3.13412 18.2537L4.3842 19.5002L3.13412 20.7466C2.61391 21.2652 1.77024 21.2652 1.24979 20.7466L0 19.5002L1.24979 18.2537C1.77024 17.7351 2.61391 17.7351 3.13412 18.2537Z" fill="#D48A7B"/>
<path fill-rule="evenodd" clip-rule="evenodd" d="M18.3069 35.875L19.5569 34.6286L20.8068 35.875C21.3272 36.3938 21.3272 37.235 20.8068 37.7539L19.5569 39L18.3069 37.7539C17.7867 37.235 17.7867 36.3938 18.3069 35.875Z" fill="#D48A7B"/>
<path fill-rule="evenodd" clip-rule="evenodd" d="M12.4264 2.64614C12.2997 2.64614 12.1865 2.57078 12.1381 2.45402C12.1063 2.37743 12.1063 2.2927 12.1381 2.21606C12.1701 2.13923 12.2298 2.07969 12.3068 2.04795C12.3449 2.03213 12.3852 2.024 12.4259 2.024C12.5527 2.024 12.6657 2.09935 12.7141 2.21606C12.746 2.2927 12.746 2.37743 12.7141 2.45402C12.6823 2.53086 12.6225 2.59044 12.5454 2.62218C12.5074 2.63795 12.4671 2.64614 12.4264 2.64614Z" fill="#D48A7B"/>
<path fill-rule="evenodd" clip-rule="evenodd" d="M4.77355 8.50059C4.70465 8.50059 4.63895 8.47846 4.58384 8.43637C4.44771 8.33199 4.42186 8.13636 4.5263 8.00038C4.58582 7.92315 4.67603 7.8788 4.77429 7.8788C4.8432 7.8788 4.9087 7.90093 4.96371 7.94307C5.09979 8.04746 5.12579 8.24302 5.0213 8.37895C4.96173 8.45628 4.87138 8.50059 4.77355 8.50059Z" fill="#D48A7B"/>
<path fill-rule="evenodd" clip-rule="evenodd" d="M1.08296 17.3858C1.06921 17.3858 1.05557 17.3853 1.04173 17.3828C0.959231 17.372 0.885877 17.33 0.835261 17.2639C0.784298 17.1982 0.762648 17.1164 0.773473 17.0342C0.793739 16.88 0.926409 16.764 1.08177 16.764C1.09556 16.764 1.10915 16.7645 1.12324 16.7664C1.20584 16.7772 1.27909 16.8197 1.32976 16.8853C1.38062 16.9513 1.40237 17.0329 1.39155 17.1151C1.37128 17.2694 1.23861 17.3858 1.08296 17.3858Z" fill="#D48A7B"/>
<path fill-rule="evenodd" clip-rule="evenodd" d="M8.2131 34.5509C8.14405 34.5509 8.07855 34.5287 8.02349 34.4866C7.88716 34.3822 7.86121 34.1866 7.9659 34.0507C8.02547 33.9734 8.11563 33.9293 8.21365 33.9293C8.2826 33.9293 8.34829 33.9512 8.40306 33.9933C8.53949 34.0978 8.56539 34.2933 8.46065 34.4295C8.40113 34.5066 8.31093 34.5509 8.2131 34.5509Z" fill="#D48A7B"/>
<path fill-rule="evenodd" clip-rule="evenodd" d="M17.1252 38.2312C17.1113 38.2312 17.0978 38.2308 17.0839 38.2288C16.9137 38.2064 16.7932 38.0503 16.8157 37.8801C16.8359 37.7259 16.9686 37.6099 17.1242 37.6099C17.1381 37.6099 17.1516 37.6104 17.1654 37.6124C17.3358 37.6347 17.4561 37.7914 17.4336 37.961C17.4134 38.1152 17.2808 38.2312 17.1252 38.2312Z" fill="#D48A7B"/>
<path fill-rule="evenodd" clip-rule="evenodd" d="M26.6878 36.9761C26.561 36.9761 26.4479 36.9007 26.3995 36.7843C26.3336 36.6256 26.4094 36.4437 26.5685 36.3779C26.6065 36.3621 26.6465 36.3542 26.6875 36.3542C26.8142 36.3542 26.9274 36.4296 26.9757 36.5463C27.0076 36.623 27.0076 36.7074 26.9757 36.7843C26.9439 36.8609 26.8839 36.9204 26.8068 36.9522C26.7688 36.9682 26.7285 36.9761 26.6878 36.9761Z" fill="#D48A7B"/>
<path fill-rule="evenodd" clip-rule="evenodd" d="M30.8998 5.07105C30.8308 5.07105 30.7654 5.04892 30.7104 5.00669C30.6444 4.95622 30.6019 4.88308 30.5911 4.80067C30.5802 4.71836 30.6022 4.63684 30.6528 4.57115C30.7124 4.49352 30.8025 4.44921 30.9005 4.44921C30.9694 4.44921 31.0352 4.47134 31.09 4.51348C31.1559 4.56419 31.1984 4.63734 31.2093 4.71965C31.2201 4.8018 31.1982 4.88367 31.1475 4.94932C31.0881 5.02665 30.9976 5.07105 30.8998 5.07105Z" fill="#D48A7B"/>
<path fill-rule="evenodd" clip-rule="evenodd" d="M21.9897 1.39066C21.9758 1.39066 21.9622 1.38967 21.9484 1.3877C21.8657 1.37691 21.7922 1.33447 21.7416 1.26877C21.6911 1.20298 21.6691 1.12116 21.6799 1.03895C21.7002 0.884739 21.8329 0.768813 21.9883 0.768813C22.002 0.768813 22.0156 0.769308 22.0297 0.771279C22.1124 0.782122 22.1858 0.824458 22.2364 0.890501C22.287 0.956248 22.309 1.03772 22.2981 1.11998C22.2777 1.27415 22.145 1.39066 21.9897 1.39066Z" fill="#D48A7B"/>
<path fill-rule="evenodd" clip-rule="evenodd" d="M8.2943 5.06054C8.17211 5.09322 8.04315 5.04969 7.96608 4.9494C7.91547 4.8834 7.89342 4.80194 7.90435 4.71968C7.91517 4.63717 7.95748 4.56403 8.02337 4.51356C8.05629 4.48843 8.09297 4.47039 8.13257 4.45984C8.25481 4.42706 8.38347 4.47069 8.46078 4.57088C8.51145 4.63688 8.53344 4.71844 8.52252 4.8007C8.51169 4.88321 8.46918 4.95635 8.40324 5.00681C8.37062 5.03195 8.3336 5.05019 8.2943 5.06054Z" fill="#D48A7B"/>
<path fill-rule="evenodd" clip-rule="evenodd" d="M2.42196 12.6904C2.35533 12.7084 2.28632 12.7038 2.22216 12.6771C2.06354 12.6116 1.98776 12.4294 2.05346 12.2711C2.09102 12.1812 2.16655 12.1151 2.26146 12.0898C2.32814 12.0718 2.39675 12.0765 2.46096 12.1028C2.61983 12.1686 2.69516 12.3508 2.62991 12.5089C2.59215 12.5991 2.51686 12.6651 2.42196 12.6904Z" fill="#D48A7B"/>
<path fill-rule="evenodd" clip-rule="evenodd" d="M4.85459 31.1106C4.7324 31.1434 4.60333 31.0998 4.52627 30.9996C4.42183 30.8637 4.44778 30.6679 4.58381 30.5637C4.61673 30.5388 4.65375 30.5205 4.69305 30.51C4.81529 30.4772 4.94396 30.5208 5.02127 30.6211C5.12576 30.757 5.09986 30.9526 4.96353 31.057C4.93091 31.0821 4.89384 31.1003 4.85459 31.1106Z" fill="#D48A7B"/>
<path fill-rule="evenodd" clip-rule="evenodd" d="M12.5068 36.9655C12.4399 36.9833 12.371 36.9788 12.3068 36.9522C12.1479 36.8867 12.0721 36.7042 12.1381 36.5461C12.1756 36.4562 12.2512 36.3899 12.346 36.3648C12.4124 36.3469 12.4815 36.3516 12.5454 36.3776C12.7044 36.4434 12.7801 36.6256 12.7143 36.7842C12.6765 36.8741 12.6012 36.9401 12.5068 36.9655Z" fill="#D48A7B"/>
<path fill-rule="evenodd" clip-rule="evenodd" d="M22.0702 38.2206C22.0566 38.2241 22.0436 38.2268 22.0294 38.2285C21.8592 38.2509 21.7024 38.131 21.6799 37.9608C21.6595 37.807 21.7573 37.6604 21.9076 37.6202C21.921 37.6168 21.9343 37.6139 21.9482 37.6121C22.1186 37.5897 22.2754 37.7099 22.2979 37.8798C22.3184 38.034 22.2203 38.1805 22.0702 38.2206Z" fill="#D48A7B"/>
<path fill-rule="evenodd" clip-rule="evenodd" d="M30.9813 34.5405C30.8589 34.5733 30.73 34.5294 30.6529 34.4295C30.5482 34.2933 30.5742 34.0977 30.7105 33.9933C30.7433 33.9684 30.7799 33.9504 30.8196 33.9398C30.942 33.907 31.0707 33.9508 31.148 34.0508C31.1986 34.1166 31.2202 34.1982 31.2094 34.2804C31.1989 34.3629 31.1561 34.4361 31.0899 34.4866C31.0575 34.5117 31.0205 34.5299 30.9813 34.5405Z" fill="#D48A7B"/>
<path fill-rule="evenodd" clip-rule="evenodd" d="M26.7679 2.63551C26.7013 2.65321 26.6323 2.64877 26.5683 2.6225C26.4915 2.59042 26.4315 2.53083 26.3996 2.45419C26.3678 2.3774 26.3678 2.29293 26.3996 2.21634C26.437 2.12615 26.5127 2.0599 26.6074 2.03486C26.6738 2.01682 26.743 2.02151 26.8067 2.04793C26.8837 2.07986 26.9438 2.1395 26.9757 2.21634C27.0074 2.29293 27.0074 2.3774 26.9757 2.45399C26.9381 2.54409 26.8625 2.61013 26.7679 2.63551Z" fill="#D48A7B"/>
<path fill-rule="evenodd" clip-rule="evenodd" d="M17.2062 1.37991C17.1928 1.38336 17.1795 1.38617 17.1657 1.38809C17.0829 1.39888 17.0012 1.377 16.935 1.32624C16.869 1.27602 16.8268 1.20268 16.8159 1.12032C16.7954 0.966205 16.8932 0.819819 17.0436 0.779503C17.0568 0.776546 17.0701 0.773593 17.0842 0.771622C17.1669 0.760483 17.2486 0.782761 17.3145 0.833229C17.3808 0.883698 17.423 0.956889 17.4342 1.03905C17.4541 1.19326 17.3561 1.33984 17.2062 1.37991Z" fill="#D48A7B"/>
<path fill-rule="evenodd" clip-rule="evenodd" d="M20.0955 23.5623V20.0373H23.6307C24.9677 20.0373 26.0749 21.019 26.2666 22.2987C25.9183 22.1035 25.5165 21.992 25.0885 21.992H22.056V25.0153C22.056 25.4422 22.1679 25.8429 22.3638 26.1902C21.0802 25.9992 20.0955 24.8954 20.0955 23.5623Z" fill="#D48A7B"/>
<path fill-rule="evenodd" clip-rule="evenodd" d="M2.3417 26.9211C2.21496 26.9211 2.10182 26.8455 2.05342 26.729C1.98778 26.5706 2.06356 26.3884 2.22243 26.3227C2.26039 26.3072 2.30067 26.299 2.3414 26.299C2.46814 26.299 2.58129 26.3744 2.62963 26.4911C2.69537 26.6493 2.6196 26.8317 2.46068 26.8972C2.42267 26.913 2.38243 26.9211 2.3417 26.9211Z" fill="#D48A7B"/>
<path fill-rule="evenodd" clip-rule="evenodd" d="M1.16398 22.2253C1.15068 22.2292 1.13734 22.2314 1.1235 22.2331C1.041 22.2442 0.95924 22.2224 0.893053 22.1716C0.826866 22.1211 0.784653 22.0479 0.773679 21.9657C0.753265 21.8115 0.851284 21.6653 1.0015 21.6249C1.01485 21.6214 1.02815 21.6187 1.04223 21.6168C1.12473 21.6059 1.20649 21.6278 1.27243 21.6783C1.33862 21.7288 1.38093 21.8022 1.39175 21.8844C1.41227 22.0386 1.3142 22.1851 1.16398 22.2253Z" fill="#D48A7B"/>
<path fill-rule="evenodd" clip-rule="evenodd" d="M28.2979 35.8543C28.1776 35.6467 28.2491 35.3812 28.4573 35.2615C28.6652 35.1416 28.9315 35.2128 29.0518 35.4204C29.1721 35.6279 29.1007 35.8932 28.8925 36.0134C28.6843 36.133 28.418 36.0619 28.2979 35.8543Z" fill="#675553"/>
<path fill-rule="evenodd" clip-rule="evenodd" d="M6.64115 31.1701H7.85263V32.3781C7.85263 32.881 7.4436 33.2888 6.93927 33.2888H5.72778V32.0806C5.72778 31.5776 6.13677 31.1701 6.64115 31.1701Z" fill="#675553"/>
<path fill-rule="evenodd" clip-rule="evenodd" d="M31.261 32.3782V31.1702H32.4725C32.9769 31.1702 33.3859 31.5777 33.3859 32.0806V33.2886H32.1744C31.6698 33.2886 31.261 32.881 31.261 32.3782Z" fill="#675553"/>
<path fill-rule="evenodd" clip-rule="evenodd" d="M3.20221 28.4137C3.41036 28.294 3.67644 28.3652 3.7967 28.5728C3.91702 28.7802 3.84539 29.0456 3.63734 29.1656C3.42919 29.2853 3.16296 29.2144 3.04265 29.0067C2.92258 28.7991 2.99401 28.5336 3.20221 28.4137Z" fill="#675553"/>
<path fill-rule="evenodd" clip-rule="evenodd" d="M9.86302 35.3731C9.98304 35.1654 10.2493 35.0943 10.4575 35.2143C10.6657 35.3342 10.7371 35.5997 10.6171 35.8073C10.4965 36.0146 10.2305 36.0861 10.0226 35.9659C9.81409 35.8462 9.74296 35.5807 9.86302 35.3731Z" fill="#675553"/>
<path fill-rule="evenodd" clip-rule="evenodd" d="M1.4454 23.8896C1.67757 23.8275 1.91642 23.9649 1.97865 24.1964C2.04088 24.4279 1.90312 24.6658 1.67095 24.7278C1.43877 24.7899 1.19988 24.6525 1.13765 24.421C1.07566 24.1895 1.21347 23.9516 1.4454 23.8896Z" fill="#675553"/>
<path fill-rule="evenodd" clip-rule="evenodd" d="M14.3135 37.3339C14.3758 37.1024 14.6146 36.965 14.8468 37.0271C15.079 37.0892 15.2166 37.3271 15.1546 37.5586C15.0923 37.7903 14.8537 37.9274 14.6213 37.8654C14.3893 37.8033 14.2513 37.5655 14.3135 37.3339Z" fill="#675553"/>
<path fill-rule="evenodd" clip-rule="evenodd" d="M23.9591 37.5586C23.8968 37.3274 24.0346 37.0892 24.2668 37.0271C24.4993 36.965 24.7376 37.1022 24.7999 37.334C24.8621 37.5655 24.7245 37.8034 24.4921 37.8654C24.2599 37.9275 24.0213 37.7901 23.9591 37.5586Z" fill="#675553"/>
<path fill-rule="evenodd" clip-rule="evenodd" d="M10.6169 3.19298C10.7372 3.40062 10.6659 3.66608 10.4577 3.78574C10.2497 3.9057 9.98337 3.83453 9.86311 3.62694C9.7428 3.4193 9.81423 3.15404 10.0224 3.03408C10.2307 2.91417 10.497 2.98539 10.6169 3.19298Z" fill="#675553"/>
<path fill-rule="evenodd" clip-rule="evenodd" d="M29.2506 3.62711C29.1305 3.8347 28.8642 3.90562 28.656 3.78595C28.4478 3.66604 28.3765 3.40078 28.4965 3.19314C28.617 2.98555 28.883 2.91438 29.091 3.03404C29.2993 3.15396 29.3706 3.41946 29.2506 3.62711Z" fill="#675553"/>
<path fill-rule="evenodd" clip-rule="evenodd" d="M15.1545 1.4416C15.2167 1.67309 15.079 1.91099 14.8468 1.97304C14.6143 2.03509 14.376 1.89773 14.3137 1.66624C14.2515 1.43469 14.3891 1.19654 14.6215 1.13478C14.8537 1.07268 15.0922 1.2101 15.1545 1.4416Z" fill="#675553"/>
<path fill-rule="evenodd" clip-rule="evenodd" d="M11.1491 17.0074L13.649 19.5L11.1491 21.9928C10.1083 23.0306 8.42103 23.0306 7.38023 21.9928L4.88035 19.5L7.38023 17.0074C8.42103 15.9699 10.1083 15.9699 11.1491 17.0074Z" fill="#675553"/>
<path fill-rule="evenodd" clip-rule="evenodd" d="M17.0569 27.8833L19.5568 25.3907L22.0566 27.8833C23.0975 28.9211 23.0975 30.6034 22.0566 31.6412L19.5568 34.1338L17.0569 31.6412C16.0161 30.6034 16.0161 28.9211 17.0569 27.8833Z" fill="#675553"/>
<path fill-rule="evenodd" clip-rule="evenodd" d="M27.9645 21.9928L25.4646 19.4999L27.9645 17.0074C29.0053 15.9698 30.6925 15.9698 31.7333 17.0074L34.2332 19.4999L31.7333 21.9928C30.6925 23.0305 29.0053 23.0305 27.9645 21.9928Z" fill="#675553"/>
<path fill-rule="evenodd" clip-rule="evenodd" d="M22.0567 11.1168L19.5568 13.6094L17.0569 11.1168C16.0161 10.0793 16.0161 8.39674 17.0569 7.35912L19.5568 4.86634L22.0567 7.35912C23.0975 8.39674 23.0975 10.0793 22.0567 11.1168Z" fill="#675553"/>
<path fill-rule="evenodd" clip-rule="evenodd" d="M14.0252 22.4874H16.5608V25.0155C16.5608 26.0678 15.7053 26.9211 14.6496 26.9211H12.1142V24.3929C12.1142 23.3405 12.9698 22.4874 14.0252 22.4874Z" fill="#675553"/>
<path fill-rule="evenodd" clip-rule="evenodd" d="M22.5527 25.0153V22.4873H25.0883C26.1438 22.4873 26.9994 23.3404 26.9994 24.393V26.921H24.4637C23.4082 26.921 22.5527 26.0677 22.5527 25.0153Z" fill="#675553"/>
<path fill-rule="evenodd" clip-rule="evenodd" d="M25.0884 16.5129H22.5527V13.9846C22.5527 12.9323 23.4083 12.0792 24.464 12.0792H26.9993V14.6072C26.9993 15.6598 26.1438 16.5129 25.0884 16.5129Z" fill="#675553"/>
<path fill-rule="evenodd" clip-rule="evenodd" d="M16.5609 13.9847V16.5129H14.0253C12.9699 16.5129 12.1142 15.6596 12.1142 14.6073V12.079H14.65C15.7053 12.079 16.5609 12.9324 16.5609 13.9847Z" fill="#675553"/>
<path fill-rule="evenodd" clip-rule="evenodd" d="M32.4725 7.83013H31.261V6.62214C31.261 6.11922 31.6697 5.71138 32.1744 5.71138H33.3856V6.91938C33.3856 7.42229 32.9768 7.83013 32.4725 7.83013Z" fill="#675553"/>
<path fill-rule="evenodd" clip-rule="evenodd" d="M7.85267 6.62205V7.83005H6.64123C6.13685 7.83005 5.72752 7.42246 5.72752 6.91954V5.71159H6.93935C7.44363 5.71159 7.85267 6.11914 7.85267 6.62205Z" fill="#675553"/>
<path fill-rule="evenodd" clip-rule="evenodd" d="M3.63752 9.8346C3.84572 9.95426 3.91685 10.2197 3.79678 10.4274C3.67647 10.635 3.41024 10.7061 3.20199 10.5862C2.99408 10.4662 2.92246 10.201 3.04272 9.9934C3.16299 9.78581 3.42897 9.71459 3.63752 9.8346Z" fill="#675553"/>
<path fill-rule="evenodd" clip-rule="evenodd" d="M1.67079 14.2721C1.90272 14.3342 2.04083 14.5721 1.97855 14.8038C1.91631 15.0353 1.67742 15.1727 1.44554 15.1106C1.21312 15.0486 1.07551 14.8107 1.13774 14.5792C1.20002 14.3475 1.43862 14.21 1.67079 14.2721Z" fill="#675553"/>
<path fill-rule="evenodd" clip-rule="evenodd" d="M24.8001 1.66624C24.7378 1.89773 24.499 2.03519 24.2669 1.97314C24.0346 1.91104 23.8968 1.67313 23.9591 1.44164C24.0213 1.20989 24.2599 1.07268 24.4923 1.13478C24.7243 1.19683 24.8623 1.43474 24.8001 1.66624Z" fill="#675553"/>
</svg>
