<svg width="42" height="42" viewBox="0 0 42 42" fill="none" xmlns="http://www.w3.org/2000/svg">
<path fill-rule="evenodd" clip-rule="evenodd" d="M35.8807 6.10364C31.9325 2.16973 26.6817 0.00230713 21.0878 0C9.56112 0 0.180049 9.33593 0.175412 20.8106C0.173867 24.4786 1.1367 28.0593 2.96681 31.2155L0 42L11.086 39.1058C14.1406 40.7641 17.5796 41.638 21.0793 41.6391H21.0881C32.6135 41.6391 41.9956 32.3024 42 20.8272C42.0023 15.266 39.8291 10.0373 35.8807 6.10364ZM21.0878 38.1243H21.0806C17.9618 38.123 14.9031 37.2888 12.234 35.7131L11.5996 35.338L5.02101 37.0556L6.77693 30.6723L6.36352 30.0178C4.62356 27.2636 3.70478 24.0803 3.70632 20.8118C3.70993 11.2744 11.5074 3.51504 21.0948 3.51504C25.7374 3.51658 30.1016 5.31819 33.3832 8.5879C36.6647 11.8576 38.4709 16.2037 38.4693 20.8259C38.4652 30.3641 30.6683 38.1243 21.0878 38.1243ZM30.6219 25.1687C30.0995 24.9083 27.5304 23.6506 27.0513 23.4768C26.5727 23.3033 26.224 23.2169 25.876 23.7373C25.5275 24.2577 24.5263 25.4292 24.2213 25.776C23.9163 26.1231 23.6119 26.1667 23.0892 25.9062C22.5666 25.646 20.8831 25.0967 18.8871 23.3251C17.3339 21.9462 16.2853 20.2433 15.9803 19.7229C15.6758 19.202 15.9777 18.9477 16.2095 18.6616C16.7752 17.9625 17.3416 17.2296 17.5157 16.8828C17.6901 16.5357 17.6028 16.2319 17.4719 15.9717C17.3416 15.7115 16.2966 13.1519 15.8613 12.1104C15.4368 11.0968 15.0064 11.2337 14.6854 11.2178C14.381 11.2026 14.0325 11.1996 13.6839 11.1996C13.3357 11.1996 12.7695 11.3295 12.2904 11.8504C11.8116 12.3711 10.4619 13.629 10.4619 16.1886C10.4619 18.7482 12.3342 21.221 12.5954 21.5681C12.8566 21.9152 16.2801 27.1677 21.5216 29.42C22.7683 29.9563 23.7414 30.2759 24.5005 30.5156C25.7524 30.9114 26.8911 30.8555 27.7916 30.7217C28.7957 30.5723 30.8828 29.4636 31.3187 28.249C31.754 27.0342 31.754 25.9931 31.6231 25.776C31.4928 25.5591 31.1443 25.4292 30.6219 25.1687Z" fill="white"/>
</svg>
