<svg width="189" height="147" viewBox="0 0 189 147" fill="none" xmlns="http://www.w3.org/2000/svg">
<path d="M23.1778 19.2794C23.1778 21.1554 21.4523 22.6761 19.3238 22.6761C17.1953 22.6761 15.4698 21.1554 15.4698 19.2794C15.4698 17.4035 17.1953 15.8828 19.3238 15.8828C21.4523 15.8828 23.1778 17.4035 23.1778 19.2794Z" fill="url(#paint0_linear_207_173)"/>
<path d="M31.2714 19.2794C31.2714 21.1554 29.5458 22.6761 27.4173 22.6761C25.2888 22.6761 23.5633 21.1554 23.5633 19.2794C23.5633 17.4035 25.2888 15.8828 27.4173 15.8828C29.5458 15.8828 31.2714 17.4035 31.2714 19.2794Z" fill="url(#paint1_linear_207_173)"/>
<path d="M39.3648 19.2794C39.3648 21.1554 37.6393 22.6761 35.5108 22.6761C33.3823 22.6761 31.6567 21.1554 31.6567 19.2794C31.6567 17.4035 33.3823 15.8828 35.5108 15.8828C37.6393 15.8828 39.3648 17.4035 39.3648 19.2794Z" fill="url(#paint2_linear_207_173)"/>
<path d="M66.8634 63.531L57.8868 94.4409H49.4034L44.6192 78.2067C44.5206 77.8893 44.389 77.413 44.2246 76.7781C44.0931 76.1432 43.9287 75.4505 43.7314 74.7001C43.567 73.9498 43.419 73.2427 43.2875 72.5789C43.156 71.8862 43.0573 71.3523 42.9916 70.9771C42.9587 71.3523 42.8601 71.8862 42.6956 72.5789C42.5641 73.2427 42.4162 73.9498 42.2517 74.7001C42.0873 75.4217 41.9229 76.1143 41.7585 76.7781C41.5941 77.413 41.4626 77.9037 41.3639 78.25L36.629 94.4409H28.1456L19.169 63.531H26.518L31.0063 80.4146C31.1379 80.9052 31.2858 81.5113 31.4502 82.2328C31.6146 82.9254 31.779 83.6614 31.9434 84.4406C32.1078 85.191 32.2558 85.927 32.3873 86.6485C32.5517 87.37 32.6668 87.9905 32.7326 88.51C32.7984 87.9616 32.897 87.3411 33.0285 86.6485C33.1601 85.927 33.308 85.2054 33.4724 84.4839C33.6368 83.7335 33.7848 83.0409 33.9163 82.406C34.0807 81.7422 34.2287 81.2227 34.3602 80.8475L39.4897 63.531H46.5428L51.6723 80.8475C51.7709 81.2227 51.9024 81.7422 52.0668 82.406C52.2312 83.0409 52.3956 83.7335 52.5601 84.4839C52.7245 85.2343 52.8724 85.9702 53.0039 86.6918C53.1355 87.3844 53.2341 87.9905 53.2999 88.51C53.3985 87.7885 53.5465 86.9371 53.7438 85.9558C53.9411 84.9457 54.1548 83.9356 54.385 82.9254C54.648 81.9153 54.8617 81.0784 55.0261 80.4146L59.5145 63.531H66.8634Z" fill="url(#paint3_linear_207_173)"/>
<path d="M117.014 63.531L108.037 94.4409H99.5539L94.7697 78.2067C94.671 77.8893 94.5395 77.413 94.3751 76.7781C94.2436 76.1432 94.0792 75.4505 93.8819 74.7001C93.7175 73.9498 93.5695 73.2427 93.438 72.5789C93.3065 71.8862 93.2078 71.3523 93.1421 70.9771C93.1092 71.3523 93.0105 71.8862 92.8461 72.5789C92.7146 73.2427 92.5666 73.9498 92.4022 74.7001C92.2378 75.4217 92.0734 76.1143 91.909 76.7781C91.7446 77.413 91.6131 77.9037 91.5144 78.25L86.7795 94.4409H78.2961L69.3195 63.531H76.6685L81.1568 80.4146C81.2883 80.9052 81.4363 81.5113 81.6007 82.2328C81.7651 82.9254 81.9295 83.6614 82.0939 84.4406C82.2583 85.191 82.4063 85.927 82.5378 86.6485C82.7022 87.37 82.8173 87.9905 82.8831 88.51C82.9488 87.9616 83.0475 87.3411 83.179 86.6485C83.3105 85.927 83.4585 85.2054 83.6229 84.4839C83.7873 83.7335 83.9353 83.0409 84.0668 82.406C84.2312 81.7422 84.3792 81.2227 84.5107 80.8475L89.6402 63.531H96.6932L101.823 80.8475C101.921 81.2227 102.053 81.7422 102.217 82.406C102.382 83.0409 102.546 83.7335 102.711 84.4839C102.875 85.2343 103.023 85.9702 103.154 86.6918C103.286 87.3844 103.385 87.9905 103.45 88.51C103.549 87.7885 103.697 86.9371 103.894 85.9558C104.092 84.9457 104.305 83.9356 104.535 82.9254C104.798 81.9153 105.012 81.0784 105.177 80.4146L109.665 63.531H117.014Z" fill="url(#paint4_linear_207_173)"/>
<path d="M167.164 63.531L158.188 94.4409H149.704L144.92 78.2067C144.822 77.8893 144.69 77.413 144.526 76.7781C144.394 76.1432 144.23 75.4505 144.032 74.7001C143.868 73.9498 143.72 73.2427 143.588 72.5789C143.457 71.8862 143.358 71.3523 143.293 70.9771C143.26 71.3523 143.161 71.8862 142.997 72.5789C142.865 73.2427 142.717 73.9498 142.553 74.7001C142.388 75.4217 142.224 76.1143 142.059 76.7781C141.895 77.413 141.764 77.9037 141.665 78.25L136.93 94.4409H128.447L119.47 63.531H126.819L131.307 80.4146C131.439 80.9052 131.587 81.5113 131.751 82.2328C131.916 82.9254 132.08 83.6614 132.244 84.4406C132.409 85.191 132.557 85.927 132.688 86.6485C132.853 87.37 132.968 87.9905 133.034 88.51C133.099 87.9616 133.198 87.3411 133.329 86.6485C133.461 85.927 133.609 85.2054 133.773 84.4839C133.938 83.7335 134.086 83.0409 134.217 82.406C134.382 81.7422 134.53 81.2227 134.661 80.8475L139.791 63.531H146.844L151.973 80.8475C152.072 81.2227 152.203 81.7422 152.368 82.406C152.532 83.0409 152.697 83.7335 152.861 84.4839C153.025 85.2343 153.173 85.9702 153.305 86.6918C153.436 87.3844 153.535 87.9905 153.601 88.51C153.699 87.7885 153.847 86.9371 154.045 85.9558C154.242 84.9457 154.456 83.9356 154.686 82.9254C154.949 81.9153 155.163 81.0784 155.327 80.4146L159.815 63.531H167.164Z" fill="url(#paint5_linear_207_173)"/>
<path fill-rule="evenodd" clip-rule="evenodd" d="M170.425 0H18.5753C9.25794 0 0 6.85257 0 17.2849V129.715C0 140.147 9.25793 147 18.5753 147H170.425C179.742 147 189 140.147 189 129.715V17.2849C189 6.85257 179.742 0 170.425 0ZM7.39858 17.2849C7.39858 11.8447 12.4026 7.43448 18.5753 7.43448H170.425C176.597 7.43448 181.601 11.8446 181.601 17.2849V129.715C181.601 135.155 176.597 139.566 170.425 139.566H18.5753C12.4026 139.566 7.39858 135.155 7.39858 129.715V17.2849Z" fill="url(#paint6_linear_207_173)"/>
<defs>
<linearGradient id="paint0_linear_207_173" x1="94.5" y1="0" x2="94.5" y2="147" gradientUnits="userSpaceOnUse">
<stop stop-color="white"/>
<stop offset="1" stop-color="#D5F3DE"/>
</linearGradient>
<linearGradient id="paint1_linear_207_173" x1="94.5" y1="0" x2="94.5" y2="147" gradientUnits="userSpaceOnUse">
<stop stop-color="white"/>
<stop offset="1" stop-color="#D5F3DE"/>
</linearGradient>
<linearGradient id="paint2_linear_207_173" x1="94.5" y1="0" x2="94.5" y2="147" gradientUnits="userSpaceOnUse">
<stop stop-color="white"/>
<stop offset="1" stop-color="#D5F3DE"/>
</linearGradient>
<linearGradient id="paint3_linear_207_173" x1="94.5" y1="0" x2="94.5" y2="147" gradientUnits="userSpaceOnUse">
<stop stop-color="white"/>
<stop offset="1" stop-color="#D5F3DE"/>
</linearGradient>
<linearGradient id="paint4_linear_207_173" x1="94.5" y1="0" x2="94.5" y2="147" gradientUnits="userSpaceOnUse">
<stop stop-color="white"/>
<stop offset="1" stop-color="#D5F3DE"/>
</linearGradient>
<linearGradient id="paint5_linear_207_173" x1="94.5" y1="0" x2="94.5" y2="147" gradientUnits="userSpaceOnUse">
<stop stop-color="white"/>
<stop offset="1" stop-color="#D5F3DE"/>
</linearGradient>
<linearGradient id="paint6_linear_207_173" x1="94.5" y1="0" x2="94.5" y2="147" gradientUnits="userSpaceOnUse">
<stop stop-color="white"/>
<stop offset="1" stop-color="#D5F3DE"/>
</linearGradient>
</defs>
</svg>
